<?xml version="1.0" encoding="utf-8"?>
<!-- Generator: Adobe Illustrator 22.0.1, SVG Export Plug-In . SVG Version: 6.00 Build 0)  -->
<svg version="1.1" id="圖層_1" xmlns="http://www.w3.org/2000/svg" xmlns:xlink="http://www.w3.org/1999/xlink" x="0px" y="0px"
	 viewBox="0 0 157.4 18.6" style="enable-background:new 0 0 157.4 18.6;" xml:space="preserve">
<style type="text/css">
	.st0{fill:#E41F1F;}
	.st1{fill:#FFFFFF;}
</style>
<g>
	<g>
		<path class="st0" d="M13,11.2c0,0.3-0.1,0.6-0.2,0.8c-0.1,0.2-0.3,0.4-0.5,0.5c-0.2,0.1-0.4,0.2-0.7,0.2H8.2l-3.1,0
			c-0.3,0-0.6-0.1-0.9-0.2c-0.3-0.2-0.4-0.4-0.6-0.6c-0.1-0.2-0.2-0.5-0.2-0.7c0-0.3,0.1-0.5,0.2-0.7L6.5,5l0-2.8H6
			c-0.1,0-0.2,0-0.2-0.2V1.6c0-0.1,0.1-0.2,0.2-0.2h1.7c0,0,0.2,0.1,0.2,0.2v0.2L7.8,5.2L7.8,5.6l-2.9,5.6c0.1,0,0.1,0.1,0.3,0.1
			l3.1-0.1h3.3c0,0,0.1,0,0.1,0c-0.1,0-0.1-0.1-0.1-0.2L8.8,5.7l0-0.4V2.1c0,0,0,0,0,0V1.6c0-0.1,0-0.2,0.2-0.2h1.6
			c0.1,0,0.2,0.1,0.2,0.2V2c0,0.1-0.1,0.2-0.2,0.2H10v2.8l2.7,5.2C12.9,10.6,13,10.9,13,11.2z"/>
		<path class="st0" d="M16.1,3.1v12.4c0,0.9-0.8,1.7-1.6,1.7H2.3c-0.9,0-1.7-0.8-1.7-1.7V3.1c0-0.9,0.8-1.7,1.7-1.7h2v0.1
			c0.3,0,0.5,0.4,0.5,0.7v1.8c0,0.4-0.2,0.8-0.5,1v0.1c-1.2,1.1-2,2.7-2,4.5c0,3.2,2.6,6,5.9,6c0.1,0,0.1,0,0.1,0c3.3,0,6-2.7,6-6
			c0-1.7-0.8-3.4-2-4.6c-0.2-0.1-0.3-0.2-0.4-0.4c-0.1-0.2-0.1-0.3-0.1-0.5V2.1c0-0.3,0.2-0.6,0.5-0.7V1.4h2.3
			C15.4,1.4,16.1,2.1,16.1,3.1z"/>
	</g>
	<g>
		<path class="st1" d="M30.1,2.3c-0.8,0-1.5,0-2.2,0h-1.4v-1h-1.6v1h-4.1l-0.1,0.1v6.1h0.1c0,0.1,0,0.1,0,0.1h4.1l0.1,1.4l0.8,0.1
			c0.3,0,0.8-0.3,0.8-0.6l0.1-0.8h3.1c0.6,0,1.1-0.3,1.1-0.9V3.1C30.7,2.6,30.5,2.3,30.1,2.3z M22.1,7.5V3.3h2.7l0.1,4.2H22.1z
			 M29.2,7.5h-2.8V3.4h2.8V7.5z"/>
		<path class="st1" d="M155.6,8.5c0,1.2,0.1,1.9-1.4,2v0.1H153l-0.4-0.9h1.3c0.4,0,0.2-0.4,0.3-0.6l-0.1-6.7h-7.9v-1c0,0.1,0,0,0,0
			h3.5l5-0.1c0.7,0.1,0.9,0.6,1,1L155.6,8.5z"/>
		<path class="st1" d="M153.3,3.2v1h-3.5c-1.3,0-2.7,0.1-3.9,0.1c0-0.3-0.1-0.8,0-1H153.3z"/>
		<path class="st1" d="M152.5,5.4c0-0.3-0.2-0.4-0.4-0.4h-5.9v4.7c0.4,0,0.5,0,0.5,0h4.8c0.1,0,1.1-0.4,1.1-1.2L152.5,5.4z M151,8.9
			h-3.7V6l2.4,0.1h1.5l0,2.4C151.3,8.6,151.2,8.8,151,8.9z"/>
		<path class="st1" d="M142.5,10.3h-5.9c-1.2-0.2-1-1.1-1.1-1.1l2.4-4.5l1.3,0.1L137,9.4h5.2l-2-3.4h0.9c0.5-0.1,0.9,0.2,1.1,0.7
			l1.4,2.4C144,10,143.2,10.2,142.5,10.3z"/>
		<path class="st1" d="M144.9,5.8h-0.8c-0.4-0.1-0.8-0.2-1.2-0.7L141,2.1h-3.3l-1.8,2.9c-0.2,0.4-0.6,0.7-1.1,0.7h-0.7l2.6-4.5h4.4
			c0.6-0.1,1,0.3,1.4,0.8L144.9,5.8z"/>
		<path class="st1" d="M103.2,1.3h1.5l-2,3.1c0.2,0,0.3,0.1,0.3,0.3v5c-0.1,0.5-0.5,0.7-0.8,0.8h-0.6V5.5h-1.2V5.4L103.2,1.3z"/>
		<path class="st1" d="M107.8,1.3h-2.3l-1.7,3.4h0.7c0.4,0,0.6-0.2,0.8-0.5l1-2h1.4l1.3,2c0.2,0.4,0.6,0.5,1,0.5h0.8l-2-2.9
			C108.5,1.4,108.3,1.3,107.8,1.3z"/>
		<path class="st1" d="M110.2,6v3.3c0,0.5-0.6,0.9-1.3,1.1l0,0h-0.3h-1.6l-0.2-0.8h1.8c0.2,0,0.3,0,0.4-0.2V6.2h-2l-1.8,3.5
			c-0.2,0.4-0.8,0.6-1.2,0.5h-0.6l2.2-4h-2l-0.1-0.8h5.6h0.1l0,0C109.8,5.3,110.2,5.5,110.2,6z"/>
		<polygon class="st1" points="59.3,3.4 58.3,3.4 59.2,4.1 58.2,5 59.3,5 59.7,4.6 60.3,5.1 61.2,5 60.3,4.2 61,3.4 60,3.4 
			59.7,3.8 		"/>
		<polygon class="st1" points="60,1.4 61,1.4 60.2,2.1 61.2,3 60.2,3 59.6,2.5 59.2,3 58.1,3 59,2 58.1,1.4 59.2,1.4 59.6,1.7 		"/>
		<path class="st1" d="M57.1,9.5l2.2,0V8.8h-4.6V8l5.1,0.1l0.8-0.7h-3.7c-0.2,0-0.2-0.8,0-0.8h5.1l0,0l0,0C62,6.7,62,6.8,62,6.9h0
			c0,0,0,0,0,0.1V7l0,0l-0.1,0.3l0,0L61.2,8h3.4v0.8h-3.9v1c-0.1,0.3,0,0.4-0.4,0.5h-2.7L57.1,9.5z"/>
		<path class="st1" d="M54.7,7.3c0-0.6,0-1.3,0-1.9h0.6l0,0c0-0.1,0-0.1,0-0.1l0,0V4.7l0,0c0-1.1,0-2.2,0-3.2l0,0V1.2h0.2
			c0.7,0,1.4,0,2.2,0h0.1l-0.1,0.7h-1.3v0.2v0.4v0.1h1.4c0,0.2,0,0.7,0,0.7h-1.4v0.6h1.4v0.7h-1.4v0.8h6.6V4.6h-1.4
			c0-0.2,0-0.4,0-0.6l1.3-0.1V3.3h-1.3V2.7h1.3l-0.1-0.7h-1.3c0-0.1,0-0.5,0-0.6l2-0.1c0.2,0,0.4,0.3,0.4,0.5v3.6c0.1,0,0.2,0,0.3,0
			c0.1,0,0.2,0.3,0.3,0.4c0,0.6,0.1,1,0.1,1.5h-1.3l0-1.2c-2.6,0-4.9,0-7.5,0c0,0.6-0.6,1.2-0.9,1.3C54.9,7.3,54.7,7.4,54.7,7.3z"/>
		<path class="st1" d="M49.3,9c0,0.3,0.3,0.3,0.5,0.3c1.3,0,2.4,0.1,3.6,0.1c0,0.1-0.4,0.9-0.4,0.9c-0.2,0-0.3,0-0.4,0
			c-0.2,0-2.8,0-2.8,0.1c-0.8-0.1-2-0.3-2-1.7V1.1c0,0,1.2,0,1.4,0c0,1.5,0,2.8,0,4.4h0.5L51.9,2l1.3,0l-2.3,4
			c-0.2,0.3-0.5,0.5-0.9,0.5h-0.8V9L49.3,9z M45.6,4L45.6,4C45.7,4,46,4.1,46,4.3v5.2c0,0.3-0.3,0.6-0.5,0.8h-0.4
			c-0.2,0-0.3-0.1-0.3-0.2V5.2l-0.3,0.5h-1.2L46.1,1h1.2L45.6,4z"/>
		<path class="st1" d="M41,9h-1.3l-0.5-1.6l-0.7,1.1c-0.1,0.2-0.6,0.4-0.9,0.5c-0.1,0-0.2,0-0.2,0h-3.2V8.2h3c0.1,0,0.2,0,0.3,0
			c0.1-0.1,0.2-0.2,0.3-0.4l0.9-1.5l-0.8-2.6h-3.8V3h3.6l-0.2-0.5h0.1l-0.1-0.1H39L39.2,3h0.7l-0.3-0.6h0.6l0.4,0.8l0.1,0.1h-0.1
			v0.5h-1.2l0.3,1l0.2-0.4h0.9L40,5.9L41,9z"/>
		<path class="st1" d="M37.3,4.5c0,0-0.1-0.1-0.1-0.1h-2.6l-0.1,0.1v3c0,0,0.1,0.1,0.1,0.1h2.3c0.1,0,0.2-0.1,0.3-0.1
			c0.1-0.1,0.1-0.2,0.1-0.4V4.6C37.3,4.6,37.3,4.5,37.3,4.5z M36.5,6.7h-1.2l0.1-1.5h1.1V6.7z"/>
		<path class="st1" d="M42.4,1.8c-0.1-0.1-0.3-0.2-0.5-0.2h-9.3c-0.1,0-0.2,0.1-0.2,0.2v8.3c0,0.1,0.2,0.4,0.4,0.4H41
			c0.4,0,0.8-0.2,1.1-0.4c0.3-0.3,0.5-0.7,0.5-1.1V2.2C42.6,2,42.5,1.9,42.4,1.8z M41.4,8.9c0,0.3-0.5,0.6-0.7,0.7
			c-1.1,0-2.1,0-3.1,0.1h-4.1c0-1,0-7.3,0.1-7.4h2.4l1.7,0.1h3.8V8.9z"/>
		<path class="st1" d="M76.4,6.9h-4.7V6.4h0.4V4.7C72.1,4.5,72,4.5,72,4.5h-2.2V3.9L72,3.8V3.2h-2.2V2.5H72l0-0.7h-2.2V1.3h-1v0.5
			h-1.2l0.3-0.5h-1l-1.1,2.1h0.4v0.4h1.6l0.9-0.1v0.6H67c-0.2,0-0.3,0.2-0.4,0.4v1.4c0,0.2,0.1,0.2,0.2,0.3h0.4
			c0.3,0,0.4-0.2,0.4-0.5V5.1h1.3v1.4h1V5.1h1.3v1.3h-0.7v0.5H66v0.7h1.5l-1.3,2.5h0.5c0.4-0.1,0.9,0.1,1.2-0.4l0.1-0.3l0.9-1.8h0.6
			v1.6c0.2,0.8,1,0.8,1.5,0.7h1.2l0.3-0.9h-1.3c-0.2,0-0.5,0-0.6-0.2V7.7h2l0.9,1.4l0.4,0.6c0.2,0.3,0.5,0.4,0.7,0.5
			c0.3,0.1,0.6,0.1,0.9,0.1h0.7l-0.9-1.1h1.1l-0.1-0.7h-1.6l-0.1-0.2l-0.5-0.6h2.3V6.9z M68.9,3.2H67l0.4-0.7h1.5V3.2z"/>
		<rect x="73" y="1.3" class="st1" width="0.9" height="3.7"/>
		<path class="st1" d="M75.9,1.3v4c0,0.1-0.1,0.3-0.1,0.4c-0.3,0.4-0.7,0.6-1.1,0.7h-1.1l-0.1-0.3l-0.2-0.5h1.2c0,0,0,0,0.1,0
			c0.2-0.1,0.2-0.1,0.3-0.2v-4H75.9z"/>
		<path class="st1" d="M116.7,2.9l5,0V2.1h-6.5l0.3-0.7h-1.3l-0.3,0.7h-2.2v0.8h1.7l-1.8,2.9h1.1v4.5h0.6c0.4,0.1,0.7-0.1,0.7-0.6
			V8.2h5.4v1c-0.1,0.3-0.2,0.3-0.3,0.3l-1.9,0.1l0.3,0.9h1.9c0.8,0,1.3-0.5,1.3-1v-5c0-0.4-0.3-0.5-0.6-0.5h-6l0.6-1H116.7z
			 M119.4,7.3H114V6.4l2.7-0.1h2.7V7.3z M116.7,4.7h2.7v0.9H114V4.7L116.7,4.7z"/>
		<path class="st1" d="M98.6,1.6h-4.3c-0.1,0-0.1,0-0.1,0.1v3l0.6-0.1c0.2,0.1,0.6-0.2,0.6-0.4l0-1.9h2.3v2.2h1.2V1.8
			C98.8,1.7,98.7,1.6,98.6,1.6z M97.5,8.3l1.6-1.6c0-0.1,0-0.2,0-0.3V5.8c0-0.4-0.3-0.5-0.6-0.5h-4.6v0.9l3.9,0
			c0,0.1-1.1,1.2-1.2,1.3l-0.7-0.6h-1.7l1.6,1.5l-1.9,1.9h1.5c0.2,0,0.4,0,0.5-0.2l0.9-0.9l0.9,1c0.2,0.2,0.5,0.2,0.9,0.2h1.1
			L97.5,8.3z"/>
		<path class="st1" d="M92.6,1.6h-2.7v8.8h0.7c0.1,0,0.3-0.3,0.3-0.6V7.2h1.2v3.1h1.1V2C93.2,1.7,92.9,1.6,92.6,1.6z M92.1,6.4h-1.2
			V4.8h1.2V6.4z M92.1,4h-1.2V2.3h1.2V4z"/>
		<polygon class="st1" points="88,1.8 88,2.5 86.6,2.6 86.1,2.6 86.1,3 84.9,3 84.9,2.6 82.9,2.6 80.8,2.5 80.8,3 79.6,3 79.6,2.6 
			77.8,2.6 77.8,1.8 79.6,1.8 79.6,1.2 80.8,1.2 80.8,1.8 84.9,1.8 84.9,1.2 86.1,1.2 86.1,1.8 		"/>
		<path class="st1" d="M87.4,6.8c-0.2,0-0.5,0.1-0.8,0.1h-1.2V6.1h1.6V5.6h-1.6V4.9h1.5V4.3h-1.5V3.6H87c0.4,0,0.5,0.3,0.7,0.6
			c0.1,0.2,0.1,0.7-0.2,1C88.1,5.7,87.6,6.8,87.4,6.8z"/>
		<path class="st1" d="M78.8,4.3v0.6h1.6v0.7h-1.6v0.6h1.6v0.7h-1.2c-0.3,0-0.5,0-0.5,0c-0.3,0-0.4-0.1-0.5-0.3c0-0.2-0.3-1,0.1-1.3
			C78,5,78,4.3,78.1,4c0.1-0.3,0.3-0.4,0.8-0.4h1.5v0.7H78.8z"/>
		<path class="st1" d="M87.9,7.4h-4.4V6.9c0.3,0,0.6,0.1,0.9,0c0.3-0.1,0.3-0.3,0.4-0.8V3.6l-1.2-0.1V3h-1.3v0.6H81l0,3.2v0.1h1.2
			v0.5h-4.3v0.8h1.4l0.7-0.1c-0.2,0.3-0.4,0.6-0.7,0.8c-0.4,0.5-0.9,0.9-1.3,1.5h1.3c0.2,0,0.5-0.2,0.6-0.2l1.6-2h0.8v2.4l0.7,0.1
			c0-0.1,0-0.1,0-0.1c0.4,0,0.6-0.3,0.6-0.6V8.2h0.9l1.5,1.8c0.2,0.3,0.4,0.4,0.7,0.4h1.2L86.6,9l-0.8-0.8h2.1V7.4z M81.9,4.1h1
			l0.9,0.1l0.1,0.6h-1.9V4.1z M81.9,6.2V5.4h1.9v0.7H81.9z"/>
		<path class="st1" d="M133.5,10.4h-0.9c-0.4,0-0.8-0.1-1.1-0.5l-0.8-0.9l-2-2.4h1.6l0.5,0.5l0.1,0.2h2.2v0.7h-1.6L133.5,10.4z"/>
		<path class="st1" d="M132.3,1.2h-4.8V8c0,1.2-0.2,2.2,1.3,2.3h1.5l0.2-0.7L129,9.5c-0.2,0-0.3-0.1-0.3-0.3V6l2-0.1h1.4
			c0.3-0.1,0.5-0.4,0.6-0.6V1.6C132.7,1.4,132.6,1.2,132.3,1.2z M131.7,4.9c-0.1,0.2-0.1,0.2-0.3,0.3h-0.7l-2.1-0.1V3.9l2.1,0.1h1
			V4.9z M131.7,3.2h-1l-2.1,0V1.9h3V3.2z"/>
		<path class="st1" d="M125.8,4.5l0.7-1.5l0.1-1.5c-0.1-0.2-0.2-0.3-0.4-0.3h-2.9v9.1h0.6c0.2-0.1,0.5-0.2,0.5-0.7l0-0.5h1.4
			c0.4,0,0.6-0.3,0.7-0.5h0.1V7.3C126.5,5.5,126.6,4.5,125.8,4.5z M124.4,8.3v-3h1.1l0.1,3H124.4z M125,4.5h-0.7V1.9h1.3L125,4.5z"
			/>
		<path class="st1" d="M155.4,15.7v0.9h1v-0.9H155.4z M147.7,15.9v0.7h0.1L147.7,15.9L147.7,15.9z M147.7,12.6v0.7h0.9v3.2h1v-3.2
			h0.9v-0.7H147.7z M147.7,12.6v0.7h0L147.7,12.6L147.7,12.6z M146.1,15.9v-3.3h-1v4h2.5v-0.7H146.1z M139.7,15.7v0.9h0.9v-0.9
			H139.7z M141.8,15.7v0.9h0.4l-0.4,1h0.4l0.6-1v-0.8H141.8z M127.9,15.9v-3.3h-0.9v4h2.6v-0.7H127.9z M133.6,15.7
			c-0.1,0.2-0.2,0.2-0.4,0.2c-0.3,0-0.5-0.1-0.6-0.3c-0.1-0.2-0.2-0.6-0.2-1c0-0.5,0.1-0.8,0.2-1c0.1-0.3,0.3-0.4,0.6-0.4
			c0.2,0,0.3,0.1,0.4,0.2c0.2,0.2,0.2,0.4,0.2,0.6l0.9-0.1c0-0.5-0.2-0.8-0.5-1.1c-0.2-0.3-0.6-0.4-1-0.4c-0.6,0-1,0.2-1.3,0.6
			c-0.3,0.4-0.5,0.9-0.5,1.5c0,0.6,0.2,1.1,0.5,1.5c0.3,0.4,0.7,0.5,1.3,0.5c0.4,0,0.8-0.1,1-0.4c0.3-0.3,0.4-0.6,0.5-1l-0.8-0.1
			C133.8,15.4,133.7,15.6,133.6,15.7z M104.3,15.7c-0.1,0.2-0.3,0.2-0.4,0.2c-0.3,0-0.4-0.1-0.6-0.3c-0.1-0.2-0.2-0.6-0.2-1
			c0-0.5,0.1-0.8,0.2-1c0.2-0.3,0.4-0.4,0.6-0.4c0.2,0,0.4,0.1,0.4,0.2c0.2,0.2,0.2,0.4,0.3,0.6l0.9-0.1c-0.1-0.5-0.3-0.8-0.5-1.1
			c-0.3-0.3-0.6-0.4-1.1-0.4c-0.6,0-1,0.2-1.3,0.6c-0.3,0.4-0.5,0.9-0.5,1.5c0,0.6,0.2,1.1,0.5,1.5c0.3,0.4,0.7,0.5,1.3,0.5
			c0.4,0,0.8-0.1,1.1-0.4c0.3-0.3,0.4-0.6,0.5-1l-0.9-0.1C104.5,15.4,104.5,15.6,104.3,15.7z M107.1,15.9v-1h1.6v-0.7h-1.6v-0.8h1.9
			v-0.7h-2.8v4h2.8v-0.7H107.1z M112.2,12.6v2.6c0,0.2,0,0.4-0.2,0.6c-0.1,0.1-0.3,0.2-0.5,0.2c-0.3,0-0.5-0.1-0.6-0.2
			c-0.1-0.1-0.1-0.3-0.1-0.6v-2.6H110v2.6c0,0.2,0,0.4,0,0.5c0,0.2,0.1,0.3,0.1,0.4c0.1,0.2,0.3,0.4,0.6,0.4
			c0.2,0.1,0.5,0.2,0.8,0.2c0.5,0,0.9-0.1,1.1-0.4c0.3-0.2,0.4-0.6,0.4-1v-2.6H112.2z M113.7,12.6v0.7h0.9v3.2h1v-3.2h0.9v-0.7
			H113.7z M117.2,12.6v4h0.9v-4H117.2z M121.2,15.7c-0.1,0.2-0.3,0.2-0.5,0.2c-0.3,0-0.5-0.1-0.6-0.3c-0.2-0.2-0.2-0.6-0.2-1
			c0-0.5,0.1-0.8,0.2-1c0.1-0.3,0.3-0.4,0.6-0.4c0.2,0,0.4,0.1,0.5,0.2c0.1,0.2,0.2,0.4,0.2,0.6l0.9-0.1c-0.1-0.5-0.2-0.8-0.5-1.1
			c-0.3-0.3-0.6-0.4-1.1-0.4c-0.5,0-1,0.2-1.3,0.6c-0.3,0.4-0.5,0.9-0.5,1.5c0,0.6,0.2,1.1,0.5,1.5c0.3,0.4,0.8,0.5,1.3,0.5
			c0.5,0,0.7-0.1,1.1-0.4c0.3-0.3,0.5-0.6,0.5-1l-0.9-0.1C121.4,15.4,121.3,15.6,121.2,15.7z M96.2,12.6l-0.8,2.6l-0.8-2.6h-1.2v4
			h0.7v-3.2l1,3.2h0.6l1-3.2v3.2h0.9v-4H96.2z M83.5,12.6v1.5h-1.3v-1.5h-0.9v4h0.9v-1.7h1.3v1.7h0.9v-4H83.5z M68,15.9v-3.3h-0.9v4
			h2.6v-0.7H68z M42.2,15.7c-0.1,0.2-0.3,0.2-0.5,0.2c-0.2,0-0.5-0.1-0.6-0.3c-0.1-0.2-0.2-0.6-0.2-1c0-0.5,0.1-0.8,0.2-1
			c0.2-0.3,0.4-0.4,0.6-0.4c0.2,0,0.3,0.1,0.5,0.2c0.1,0.2,0.2,0.4,0.3,0.6l0.9-0.1c0-0.5-0.2-0.8-0.5-1.1c-0.3-0.3-0.6-0.4-1.1-0.4
			c-0.5,0-1,0.2-1.3,0.6C40.2,13.5,40,14,40,14.6c0,0.6,0.1,1.1,0.5,1.5c0.3,0.4,0.7,0.5,1.3,0.5c0.4,0,0.8-0.1,1.1-0.4
			c0.3-0.3,0.4-0.6,0.5-1l-0.9-0.1C42.4,15.4,42.3,15.6,42.2,15.7z M46.4,12.6v1.5h-1.3v-1.5h-0.9v4h0.9v-1.7h1.3v1.7h0.9v-4H46.4z
			 M49.3,15.9v-1h1.6v-0.7h-1.6v-0.8h1.9v-0.7h-2.8v4h2.8v-0.7H49.3z M54.9,12.6l-0.8,2.6l-0.9-2.6h-1.2v4h0.7v-3.2l1,3.2h0.6l1-3.2
			v3.2h0.9v-4H54.9z M57.3,12.6v4h0.9v-4H57.3z M61.3,15.7c-0.1,0.2-0.2,0.2-0.4,0.2c-0.2,0-0.5-0.1-0.6-0.3c-0.1-0.2-0.2-0.6-0.2-1
			c0-0.5,0.1-0.8,0.2-1c0.1-0.3,0.3-0.4,0.6-0.4c0.2,0,0.4,0.1,0.5,0.2c0.1,0.2,0.2,0.4,0.2,0.6l0.9-0.1c-0.1-0.5-0.2-0.8-0.5-1.1
			c-0.2-0.3-0.6-0.4-1.1-0.4c-0.5,0-1,0.2-1.3,0.6c-0.3,0.4-0.5,0.9-0.5,1.5c0,0.6,0.2,1.1,0.5,1.5c0.3,0.4,0.8,0.5,1.3,0.5
			c0.4,0,0.8-0.1,1.1-0.4c0.3-0.3,0.5-0.6,0.5-1l-0.9-0.1C61.5,15.4,61.5,15.6,61.3,15.7z M22.5,15.7c-0.1,0.2-0.3,0.2-0.5,0.2
			c-0.3,0-0.5-0.1-0.6-0.3c-0.1-0.2-0.2-0.6-0.2-1c0-0.5,0.1-0.8,0.2-1c0.1-0.3,0.3-0.4,0.6-0.4c0.2,0,0.4,0.1,0.5,0.2
			c0.1,0.2,0.2,0.4,0.2,0.6l0.9-0.1c-0.1-0.5-0.2-0.8-0.5-1.1c-0.3-0.3-0.6-0.4-1.1-0.4c-0.5,0-1,0.2-1.3,0.6
			c-0.3,0.4-0.5,0.9-0.5,1.5c0,0.6,0.2,1.1,0.5,1.5c0.3,0.4,0.7,0.5,1.3,0.5c0.4,0,0.8-0.1,1.1-0.4c0.2-0.3,0.4-0.6,0.5-1l-0.9-0.1
			C22.7,15.4,22.6,15.6,22.5,15.7z M26.7,12.6v1.5h-1.3v-1.5h-0.9v4h0.9v-1.7h1.3v1.7h0.9v-4H26.7z M28.7,12.6v4h1v-4H28.7z
			 M33.1,12.6l0,2.6l-1.5-2.6h-1v4h0.8v-2.9l1.7,2.9h0.8v-4H33.1z"/>
		<path class="st1" d="M36.8,12.6h-1l-1.2,4h0.8l0.2-0.9h1.3l0.2,0.9h1L36.8,12.6z M35.8,15l0.5-1.5l0.4,1.5H35.8z"/>
		<path class="st1" d="M65.1,12.6h-1l-1.2,4h0.8l0.3-0.9h1.3l0.3,0.9h1L65.1,12.6z M64.1,15l0.4-1.5h0.1L65,15H64.1z"/>
		<path class="st1" d="M75,15.9c-0.1,0-0.2,0-0.2-0.1c-0.1,0-0.1-0.1-0.2-0.1c0.2-0.2,0.3-0.4,0.4-0.6c0.2-0.2,0.2-0.4,0.3-0.7
			l-0.8-0.1c-0.1,0.2-0.1,0.4-0.2,0.5c-0.1,0.2-0.2,0.3-0.3,0.4l-0.5-0.8c0.3-0.1,0.4-0.2,0.6-0.4c0.1-0.2,0.2-0.4,0.2-0.6
			c0-0.3-0.2-0.5-0.4-0.7c-0.2-0.2-0.4-0.3-0.8-0.3c0,0,0,0,0,0c-0.4,0-0.6,0.1-0.8,0.3C72.1,13,72,13.2,72,13.5c0,0.2,0,0.3,0,0.4
			c0.1,0.2,0.2,0.3,0.3,0.5c-0.4,0.1-0.6,0.2-0.8,0.4c-0.1,0.2-0.2,0.4-0.2,0.7c0,0.4,0.2,0.6,0.4,0.9c0.3,0.2,0.6,0.3,1.1,0.3h0.3
			c0.1-0.1,0.2-0.1,0.3-0.1c0.2-0.1,0.4-0.2,0.5-0.3c0.1,0.1,0.3,0.2,0.4,0.3c0.2,0,0.3,0.1,0.5,0.1H75c0.1-0.1,0.1-0.1,0.2-0.1
			v-0.7c0,0.1-0.1,0.1-0.1,0.1H75z M72.9,13.2c0.1-0.1,0.1-0.1,0.3-0.1c0,0,0,0,0,0c0.1,0,0.2,0.1,0.3,0.1c0.1,0.1,0.1,0.2,0.1,0.3
			c0,0.1,0,0.2-0.1,0.3c-0.1,0-0.1,0.2-0.3,0.2h0c-0.1-0.1-0.2-0.2-0.3-0.3c-0.1,0-0.1-0.1-0.1-0.2C72.8,13.4,72.9,13.3,72.9,13.2z
			 M73.2,15.9C73.2,15.9,73.2,15.9,73.2,15.9L72.9,16c-0.2,0-0.3-0.1-0.5-0.2c-0.1-0.1-0.2-0.3-0.2-0.4c0-0.2,0.1-0.3,0.1-0.4
			c0.1-0.1,0.2-0.2,0.3-0.3l0.5,0.6l0.3,0.4C73.4,15.9,73.3,15.9,73.2,15.9z"/>
		<path class="st1" d="M80.1,13c-0.3-0.2-0.6-0.3-1.1-0.3h-1.6v4h0.9v-1.5h0.8c0.4,0,0.8-0.1,1-0.4c0.3-0.2,0.4-0.5,0.4-0.8
			C80.5,13.5,80.4,13.2,80.1,13z M79.3,14.3c-0.1,0.1-0.2,0.2-0.4,0.2c0,0-0.1,0-0.1,0h-0.5v-1.1h0.6c0.2,0,0.3,0.1,0.4,0.2
			c0.2,0.1,0.2,0.2,0.2,0.4C79.5,14,79.5,14.2,79.3,14.3z"/>
		<path class="st1" d="M87.3,12.6h-1l-1.2,4h0.8l0.3-0.9h1.3l0.3,0.9h1L87.3,12.6z M86.3,15l0.4-1.5l0.4,1.5H86.3z"/>
		<path class="st1" d="M91.8,14.8c0.3-0.1,0.4-0.2,0.5-0.4c0.1-0.2,0.2-0.4,0.2-0.6c0-0.4-0.1-0.7-0.3-0.9c-0.3-0.2-0.7-0.3-1.1-0.3
			h-1.7v4h0.9V15h0.7l0.7,1.6h0.9L91.8,14.8z M91.4,14.2c0,0.1-0.1,0.1-0.2,0.1c-0.1,0-0.2,0-0.3,0h-0.7v-1h0.7
			c0.2,0,0.4,0.1,0.5,0.1c0.1,0.1,0.2,0.2,0.2,0.4C91.6,14,91.5,14.1,91.4,14.2z"/>
		<path class="st1" d="M100.4,12.6h-1l-1.3,4h0.8l0.3-0.9h1.2l0.3,0.9h0.9L100.4,12.6z M99.3,15l0.5-1.5l0.4,1.5H99.3z"/>
		<path class="st1" d="M125,12.6h-1l-1.2,4h0.8l0.2-0.9h1.3l0.3,0.9h1L125,12.6z M124,15l0.4-1.5h0.1l0.4,1.5H124z"/>
		<path class="st1" d="M138.4,13.1c-0.3-0.4-0.7-0.6-1.3-0.6c-0.6,0-1,0.2-1.3,0.6c-0.4,0.4-0.5,0.9-0.5,1.5c0,0.6,0.2,1.1,0.5,1.5
			c0.2,0.2,0.3,0.4,0.6,0.4c0.2,0.1,0.5,0.1,0.7,0.1c0.6,0,1-0.2,1.3-0.6c0.4-0.4,0.5-0.8,0.5-1.5C138.9,14,138.7,13.5,138.4,13.1z
			 M137.7,15.6c-0.1,0.2-0.3,0.3-0.6,0.3c-0.3,0-0.5-0.1-0.6-0.3c-0.2-0.3-0.3-0.6-0.3-1c0-0.5,0.1-0.8,0.3-1
			c0.1-0.1,0.1-0.2,0.2-0.3c0.1-0.1,0.2-0.1,0.3-0.1c0.3,0,0.5,0.1,0.6,0.4c0.1,0.2,0.2,0.5,0.2,1C137.9,15,137.8,15.4,137.7,15.6z"
			/>
		<path class="st1" d="M154.3,13.6c-0.1-0.3-0.4-0.5-0.6-0.7c-0.2-0.1-0.3-0.2-0.5-0.2c-0.1,0-0.3-0.1-0.4-0.1h-1.7v4h1.7
			c0.4,0,0.8-0.3,1.2-0.5c0.4-0.4,0.6-0.8,0.6-1.5C154.5,14.3,154.5,13.9,154.3,13.6z M153.3,15.6c-0.1,0.2-0.3,0.3-0.4,0.3h-0.8
			v-2.6h0.5c0.1,0,0.1,0,0.3,0.1c0.2,0.1,0.3,0.2,0.4,0.3c0.2,0.2,0.3,0.5,0.3,1C153.5,15,153.5,15.3,153.3,15.6z"/>
	</g>
</g>
</svg>
