<?xml version="1.0" encoding="utf-8"?>
<!-- Generator: Adobe Illustrator 22.0.1, SVG Export Plug-In . SVG Version: 6.00 Build 0)  -->
<svg version="1.1" id="圖層_1" xmlns="http://www.w3.org/2000/svg" xmlns:xlink="http://www.w3.org/1999/xlink" x="0px" y="0px"
	 viewBox="0 0 243.7 108.1" style="enable-background:new 0 0 243.7 108.1;" xml:space="preserve">
<style type="text/css">
	.st0{fill:#FFFFFF;}
	.st1{fill:#00683D;}
	.st2{fill:#429B48;}
	.st3{fill:#51A648;}
</style>
<g>
	<g>
		<path class="st0" d="M242.2,40.4c0,0-0.1-0.1-0.1-0.1c-1.3-2.1-3.2-3.8-5.5-4.9c-2-1-4.1-1.5-6.3-1.5c-2.2,0-4.3,0.5-6.3,1.5
			c-1.7,0.8-3.3,2-4.5,3.5h-1.1c-5.2,0-9.6,3.6-10.8,8.4l-0.2-0.3c-0.6-1.2-1.7-3.1-3.6-4.9c-3.1-3-7.2-4.7-11.5-4.7
			c-1.3,0-2.5,0.1-3.8,0.4c-1.3,0.3-2.5,0.7-3.8,1.4c-0.9-0.2-1.9-0.4-2.9-0.4h-26.7c-0.1,0-0.3,0-0.4,0c-1.4,0.1-2.9,0.3-4.2,0.8
			c-1.3-0.5-2.7-0.8-4.2-0.8h-26.7c-0.1,0-0.3,0-0.4,0c-1.6,0.1-5.5,0.6-8.9,3.6c-0.2-0.1-0.4-0.2-0.6-0.4c0,0,0,0,0,0
			c0,0,0.1-0.1,0.1-0.1c2.3-2.7,3.5-6.3,4-11.7c0,0,0-0.1,0-0.1c0.1-1,0.1-2.1,0.2-3.1c0.8-0.2,1.6-0.5,2.4-0.9c0,0,0,0,0,0
			c2.2-1.1,4.1-2.8,5.4-4.9c0,0,0,0,0,0c1.3-2.1,2-4.5,2-7c0-2.5-0.7-4.9-2-7c-1.3-2.1-3.2-3.8-5.5-5c0,0,0,0-0.1,0
			c-2-1-4.1-1.4-6.2-1.4c-2.2,0-4.3,0.5-6.3,1.5c0,0,0,0,0,0c-1.1,0.5-2.1,1.2-3,2c-1.8-1.2-3.9-1.9-6.2-1.9c-1.5,0-3,0.3-4.3,0.8
			c-1.4-0.6-2.9-0.9-4.5-0.9c-3.3,0-6.4,1.4-8.6,3.9c-2.1-1.9-4.8-3-7.9-3h-7.3c-1.3,0-2.6,0.2-3.8,0.5c-1.7-0.9-3.5-1.3-5.4-1.3
			c-4.4,0-8.3,2.5-10,6.5c-2.9,2-4.7,5.3-4.7,9.1c0,1.1,0.2,2.2,0.5,3.2c-1.3-0.2-2.4-0.3-3.3-0.3c-0.5,0-0.8,0-1,0
			c-0.1,0-0.2,0-0.3,0c-0.8,0.1-1.7,0.2-2.5,0.4c-0.5-0.6-0.9-1.1-1.2-1.4c-0.2-0.2-0.4-0.4-0.6-0.6c-2.7-2.2-5.8-3.3-9.1-3.3h0h0
			c-6,0-10,3.7-11.2,5C4.8,25.7,2,32.4,1.4,40c-0.4,5.2,0.3,9.2,0.5,9.9c0.2,0.8,0.4,1.6,0.8,2.3c-1.1,4-1.2,7.1-1.2,7.8
			c0,1.3,0.2,2.6,0.7,3.8c1.5,3.9,5.2,6.5,9.4,6.6c0,0.9,0,1.5,0,2c0,7.3,1.8,13.8,5.4,19.2c2.9,4.5,6.9,8.1,11.8,10.9
			c7.7,4.3,15.2,4.9,16.4,5c1.2,0.1,2.3,0.1,3.4,0.1c6.6,0,12.9-1.4,18.3-4c2,2.2,4.9,3.6,8.2,3.6h9.7c3.3,0,6.3-1.5,8.4-3.8
			c2.1,2.4,5.1,3.8,8.4,3.8h9.7c1.4,0,2.7-0.3,3.9-0.7c1.1,0.4,2.3,0.6,3.6,0.7c0.2,0,0.5,0,0.7,0h27c1.5,0,2.8-0.3,4.1-0.8
			c1.2,0.4,2.4,0.7,3.8,0.8c0.2,0,0.5,0,0.7,0h27c0.8,0,1.7-0.1,2.4-0.3c0.9,0.3,1.9,0.4,3,0.4h2.9c5.5,0,10.1-4,11-9.3l0.6,1.1
			c0,0,0.1,0.1,0.1,0.1c2.4,4.1,7.7,8.9,15,8.9c1.1,0,2.2-0.1,3.3-0.3c1.9-0.4,4.7-1.3,7.3-3.7c2.2-2,4.9-5.8,5.1-11.8
			c0-0.1,0-0.2,0-0.3V60.6c1.3-0.2,2.6-0.7,3.9-1.3c0,0,0,0,0,0c2.2-1.1,4.1-2.8,5.4-4.9c0-0.1,0.1-0.1,0.1-0.2
			c1.2-2.1,1.9-4.5,1.9-6.8C244.1,44.9,243.5,42.5,242.2,40.4z"/>
	</g>
	<g>
		<g>
			<path class="st1" d="M99.4,75c12.1-1.9,12-12.1,12-13.1c0.2-10.1-9.1-13-14.1-13.1H78c-0.1,0-0.1,0-0.2,0c-3.3,0.5-4.1,3.2-4,4.4
				V96c0,0.6,0.5,1.2,1.2,1.2h9.7c0.6,0,1.2-0.5,1.2-1.2V55c0.1-0.8,0.4-0.9,0.7-0.9c0,0,0.1,0,0.1,0H94c2.4,0.4,4.1,1.5,5.2,3
				c1.9,2.8,1.2,6.5,1.1,6.5c0,0.1,0,0.1,0,0.2c-0.2,7.6-12.8,8.4-13,8.5c-0.4,0-0.8,0.3-1,0.6c-0.2,0.4-0.2,0.8,0,1.2l14.1,22.5
				c0.2,0.3,0.6,0.5,1,0.5h9.7c0.4,0,0.8-0.2,1-0.6c0.2-0.4,0.2-0.8,0-1.2L99.4,75z"/>
			<path class="st1" d="M146.4,48.8h-26.7c-0.2,0-1.8,0.1-2.9,1.3c-0.7,0.8-1,1.8-1,2.9v39.8c0,0.4-0.1,1.9,0.9,3
				c0.4,0.5,1.3,1.2,2.8,1.3h27c0.6,0,1.2-0.5,1.2-1.2v-3c0-0.6-0.5-1.2-1.2-1.2h-16.8c0,0-0.1,0-0.2,0c-0.1,0-0.7,0-1.1-0.2
				c-0.3-0.1-0.5-0.4-0.5-1V76.5c0-0.1,0-0.2,0-0.2c0-0.1-0.2-1.1,1.4-1.5h15.9c0.6,0,1.2-0.5,1.2-1.2v-2.9c0-0.6-0.5-1.2-1.2-1.2
				h-15.9c-0.3,0-1.3-0.1-1.3-1.3V55.1c0,0,0-0.1,0-0.1c0,0,0-0.3,0.2-0.5c0.2-0.3,0.7-0.4,1-0.4h17.3c0.6,0,1.2-0.5,1.2-1.2v-3
				C147.6,49.3,147,48.8,146.4,48.8z"/>
			<path class="st1" d="M182,48.8h-26.7c-1.6,0.1-4,1.3-3.9,4.3v39.8c0,0.4-0.1,1.9,0.9,3c0.4,0.5,1.3,1.2,2.8,1.3h27
				c0.6,0,1.2-0.5,1.2-1.2v-3c0-0.6-0.5-1.2-1.2-1.2h-16.8c0,0-0.1,0-0.2,0c-0.1,0-0.7,0-1.1-0.2c-0.3-0.1-0.5-0.4-0.5-1V76.5
				c0-0.1,0-0.2,0-0.2c0-0.1-0.2-1.1,1.3-1.5h15.9c0.6,0,1.2-0.5,1.2-1.2v-2.9c0-0.6-0.5-1.2-1.2-1.2h-16c-0.3,0-1.3-0.1-1.3-1.3
				V55.1c0,0,0-0.1,0-0.1c0-0.4,0.2-0.8,1.2-0.9H182c0.6,0,1.2-0.5,1.2-1.2v-3C183.1,49.3,182.6,48.8,182,48.8z"/>
			<path class="st1" d="M221.6,48.8h-3.2c-0.6,0-1.2,0.5-1.2,1.2v34.6c0,0.1-0.1,0.2-0.1,0.3c-0.1-0.1-0.2-0.3-0.4-0.5l-18.2-32.8
				c-0.3-0.6-2.1-4.1-6.2-4.1c-0.5,0-1.1,0.1-1.6,0.2c-1.5,0.3-4.9,1.7-4.7,7.7l0.1,40.9c0,0.6,0.5,1.2,1.2,1.2h2.9
				c0.6,0,1.2-0.5,1.2-1.2v-35c0.1-0.2,0.2-0.4,0.2-0.4c0.1,0,0.3,0.1,0.6,0.5l18.4,32.9c0.1,0.2,2.3,3.9,6.4,3.9
				c0.4,0,0.9,0,1.3-0.1c1-0.2,4.3-1.2,4.4-6.1V50C222.8,49.3,222.3,48.8,221.6,48.8z"/>
			<path class="st1" d="M69,71.4l-10.1-0.1c-0.3,0-0.6,0.1-0.8,0.3c-0.2,0.2-0.3,0.5-0.3,0.8v18.2c-3.3,1.3-7,1.5-9,1.5
				c-0.8,0-1.2,0-1.2,0c-15-1.2-13.9-19-13.8-19.8c0-0.1,0-0.1,0-0.2c-0.9-13.7,7.5-18.2,7.8-18.4c2.8-1.5,5.6-2.3,8.4-2.3
				c8.1,0,13.6,6.3,13.6,6.3c0.1,0.1,0.2,0.2,0.4,0.3c1.2,0.6,2.2,0.5,2.8-0.2c0.6-0.7,0.6-1.6,0.6-1.8c0-0.2-0.1-0.4-0.2-0.5
				c-5.5-8.8-16.5-9.4-19.7-9.4c-0.4,0-0.7,0-0.7,0c-26.4,2.3-25.2,25.8-25.2,26c0,23.7,24.1,25.3,24.3,25.3
				c0.9,0.1,1.9,0.1,2.8,0.1c14.8,0,21.1-8.3,21.3-8.7c0.1-0.2,0.2-0.4,0.2-0.7V72.6C70.1,71.9,69.6,71.4,69,71.4z"/>
		</g>
		<g>
			<path class="st2" d="M11.7,48c0,0-2.5-12.5,5-20.3c0,0,3.3-3.6,6.7-0.8c0,0,2.7,2.6-0.8,6.5c0,0-9,6.6-10.3,14.6
				C12.2,48,11.9,48.4,11.7,48z"/>
			<path class="st2" d="M11.4,60.2c0,0,0.2-10.5,7.6-15.8c0,0,3.6-2.6,6.2,0.4c0,0,2,3-2,5.4c0,0-8.8,3.9-11.3,10
				C11.9,60.3,11.6,60.6,11.4,60.2z"/>
			<path class="st2" d="M16,43.6c0,0,6.8-11.7,19.1-12.9c0,0,5.1-0.4,5.9,4c0,0,0.6,4.3-5,4.8c0,0-12.8-0.8-19.6,4.5
				C16.4,44,15.9,44.1,16,43.6z"/>
		</g>
		<g>
			<path class="st1" d="M61.9,17.1c-0.6,0-1-0.1-1-0.4l0.6-1.2c0.2-0.4,0.5-0.5,1.1-0.5h5.9c0.3,0,0.4,0.2,0.4,0.7l-0.5,1.5H61.9z
				 M52.1,12.7c-0.8,1.7-1.5,3.2-2.2,4.4c-0.3-0.2-0.6-0.3-0.8-0.3c-0.6,0-1,0.3-1,1c0,0.2,0.1,0.5,0.3,0.7c0.6,0.3,1,0.7,1.4,1
				c0.5,0.4,1.1,0.9,1.9,1.6c0,0,0.1,0,0.1,0.1c0,0-0.1,0.1-0.1,0.1c-0.7,0.9-1.4,1.9-2.3,2.8c-0.2,0-0.4,0-0.6,0
				c-0.6,0-0.9,0.3-0.9,1c0,0.8,0.3,1.3,0.9,1.3c1-0.1,2.1-0.2,3.2-0.4v10.1c0,0.7,0.4,1.1,1.1,1.1c0.7,0,1.1-0.3,1.1-1.1V25.7
				c0.4-0.1,0.7-0.1,1.1-0.2c0.1,0,0.2,0,0.3-0.1c0.1,0.3,0.2,0.7,0.3,1.1c0.2,0.5,0.4,0.7,0.7,0.7c0.8,0,1.2-0.3,1.2-0.8
				c0-0.2,0-0.5-0.1-0.7c-0.4-1.3-0.9-2.5-1.5-3.5C56,22.1,55.7,22,55.5,22c-0.6,0-1,0.2-1,0.6c0,0.1,0,0.3,0.1,0.5
				c0.1,0.2,0.2,0.4,0.3,0.6c-0.9,0.2-1.9,0.3-3,0.3c0.6-0.7,1.2-1.4,1.8-2.1c1.1-1.5,2.1-3,3-4.6c0.1-0.2,0.2-0.5,0.2-0.7
				c0-0.2-0.1-0.5-0.3-0.7c-0.2-0.2-0.4-0.3-0.7-0.3c-0.4,0-0.6,0.1-0.8,0.3c-0.6,1.2-1.3,2.4-2,3.5c-0.6-0.5-1.1-0.9-1.5-1.3
				c1-1.3,1.8-2.9,2.6-4.6c0.1-0.2,0.1-0.4,0.1-0.5c0-0.3-0.1-0.5-0.4-0.7c-0.3-0.2-0.6-0.3-0.9-0.3C52.5,12.2,52.2,12.4,52.1,12.7z
				 M48.7,28.4c-0.1,2.2-0.4,4.3-0.6,6.2c-0.1,0.2-0.1,0.4-0.1,0.6c0,0.6,0.4,0.9,1.1,0.9c0.4,0,0.8-0.2,1-0.5
				c0.3-1.9,0.5-3.9,0.7-6.1c0.1-0.3,0.1-0.5,0.1-0.8c0-0.6-0.3-0.8-1-0.8C49.1,27.8,48.8,28,48.7,28.4z M55.6,28.7l0,0.2
				c0.2,0.8,0.4,1.7,0.6,2.8c0,0.6,0.4,0.9,0.9,0.9c0.6,0,0.9-0.3,0.9-0.9c0-0.1,0-0.3-0.1-0.5c-0.2-1.3-0.5-2.2-0.7-2.7
				c-0.2-0.3-0.5-0.5-1-0.5C55.9,27.9,55.6,28.2,55.6,28.7z M59.9,14.2l-1.2,3.1c0,1.1,0.7,1.7,2.1,1.7h6.8l-0.6,1.8h-9
				c-0.6,0-0.9,0.3-0.9,0.9c0,0.7,0.3,1,0.9,1h5.7V34c0,0.7-0.3,1.1-1.1,1.1c-0.2,0-0.7-0.1-1.4-0.4c-0.1,0-0.2-0.1-0.3-0.1
				c-0.6,0-0.9,0.4-1,1.1c0,0.5,0.3,0.9,0.8,1.1c0.8,0.3,1.4,0.4,1.8,0.4c2.1,0,3.2-0.9,3.2-2.7v-6.6c0.4,1.2,1,2.4,1.7,3.6
				c1,1.7,2.3,3.3,3.8,4.8c0.5,0.3,0.8,0.5,1.2,0.5c0.7,0,1.1-0.5,1.2-1.3c0-0.3-0.1-0.5-0.4-0.8c-1.5-1.2-2.7-2.4-3.6-3.6
				c-0.6-0.8-1.1-1.6-1.6-2.4c0.1,0.1,0.3,0.1,0.6,0.1c0.2,0,0.4-0.1,0.6-0.2c0.8-0.6,1.6-1.3,2.4-2.3c0.4-0.5,0.5-0.9,0.5-1.3
				c0-0.7-0.3-1.1-1.1-1.1c-0.4,0-0.7,0.2-0.9,0.5c-0.7,1-1.5,1.9-2.4,2.7c-0.1,0.2-0.2,0.4-0.2,0.6c-0.1-0.2-0.2-0.3-0.2-0.5
				C67,26,66.4,24.6,66,22.9v-0.1h6.8c0.6,0,0.9-0.3,0.9-1c0-0.6-0.3-0.9-0.9-0.9h-3.6c1.3-3.8,1.9-5.8,1.9-6c0-1.2-0.6-1.8-1.7-1.8
				h-7.3C60.9,13,60.2,13.4,59.9,14.2z M58.3,24.9c0,0.1,0.1,0.3,0.2,0.5c0.6,0.8,1.2,1.7,1.8,2.6c0.2,0.1,0.4,0.2,0.5,0.2
				c0.7,0,1.1-0.3,1.1-1c0-0.1,0-0.3-0.1-0.5c-0.5-1-1.1-1.9-1.7-2.7c-0.2-0.1-0.5-0.2-0.7-0.2C58.7,23.9,58.3,24.2,58.3,24.9z
				 M61.3,29.9c-0.7,0.8-1.4,1.6-2.2,2.3c-0.7,0.6-1.4,1.2-2.3,1.8c-0.4,0.2-0.5,0.5-0.5,0.9c0,0.6,0.4,0.9,1.1,0.9
				c0.2,0,0.4-0.1,0.7-0.2c0.6-0.4,1.2-0.9,2-1.6c0.8-0.8,1.6-1.5,2.1-2.2c0.5-0.5,0.7-0.9,0.7-1.2c0-0.7-0.3-1.1-0.9-1.1
				C61.7,29.6,61.5,29.7,61.3,29.9z"/>
			<path class="st1" d="M83.3,34.4c-0.6,0-0.8-0.3-0.8-1v-6.6h6v6.6c0,0.6-0.3,1-0.8,1H83.3z M84.9,12.5c-0.4,0.9-0.9,1.8-1.4,2.7
				c-0.2,0.4-0.5,0.7-0.7,1.1h-0.4c-1.4,0-2.1,0.7-2.1,2v15.9c0,1.4,0.7,2.1,2.1,2.1h6.1c1.4,0,2.1-0.7,2.1-2.1V18.3
				c0-1.3-0.7-2-2.1-2h-3.2c0.1-0.2,0.2-0.4,0.4-0.6c0.4-0.6,0.7-1.2,1-1.9c0.1-0.2,0.2-0.5,0.2-0.7c0-0.3-0.1-0.5-0.3-0.8
				c-0.2-0.2-0.5-0.3-0.8-0.3C85.5,12.1,85.1,12.2,84.9,12.5z M82.5,19.2c0-0.6,0.3-0.8,0.8-0.8h4.4c0.6,0,0.8,0.3,0.8,0.8v5.7h-6
				V19.2z M93.5,13.2c-0.1,1.5-0.3,2.7-0.6,3.8c-0.3,1.1-0.8,2.2-1.6,3.2c-0.1,0.2-0.1,0.4-0.1,0.5c0,0.7,0.4,1.1,1.1,1.1
				c0.3,0,0.7-0.2,1.1-0.5c0.7-1.1,1.3-2.3,1.6-3.6h6.1c0.7,0,1,0.4,1,1.2c0,3.8-0.1,7-0.3,9.7c-0.2,2.4-0.5,4-1,4.9
				c-0.5,0.9-1.3,1.3-2.5,1.3c-1,0-2.5-0.4-4.5-1.3c-0.6,0-0.9,0.4-0.9,1.3c0,0.5,0.2,0.9,0.7,1.1c1.8,0.8,3.4,1.2,4.9,1.2
				c1.7,0,3-0.5,3.8-1.5c0.8-0.9,1.4-2.9,1.6-6c0.3-3.5,0.4-7.3,0.4-11.5c0-1.5-0.7-2.3-2.1-2.3h-6.8c0.1-0.7,0.2-1.6,0.2-2.4
				c0-0.6-0.4-1-1.1-1C93.9,12.2,93.5,12.5,93.5,13.2z"/>
			<path class="st3" d="M91.7,30.5c0,0,2.1-6.5,7.6-8.4c0,0,2.7-0.9,3.7,1.4c0,0,0.6,2.2-2.2,3c0,0-6.1,0.8-8.8,4.1
				C91.9,30.7,91.7,30.8,91.7,30.5z"/>
		</g>
		<g>
			<path class="st1" d="M110.1,10.6c0.7,0,1.3,0.1,1.9,0.4c0.6,0.3,1.1,0.7,1.4,1.3c0.3,0.6,0.5,1.1,0.5,1.7c0,0.6-0.2,1.2-0.5,1.7
				c-0.3,0.6-0.8,1-1.4,1.3c-0.6,0.3-1.3,0.5-1.9,0.5c-0.7,0-1.3-0.2-1.9-0.5c-0.6-0.3-1.1-0.7-1.4-1.3c-0.3-0.6-0.5-1.1-0.5-1.7
				c0-0.6,0.2-1.2,0.5-1.7c0.3-0.6,0.8-1,1.4-1.3C108.8,10.8,109.4,10.6,110.1,10.6z M110.1,11.2c-0.5,0-1.1,0.1-1.6,0.4
				c-0.5,0.3-0.9,0.6-1.2,1.1c-0.3,0.5-0.4,1-0.4,1.5c0,0.5,0.1,1,0.4,1.4c0.3,0.5,0.7,0.8,1.2,1.1c0.5,0.3,1.1,0.4,1.6,0.4
				c0.6,0,1.1-0.1,1.6-0.4c0.5-0.3,0.9-0.6,1.2-1.1c0.3-0.5,0.4-0.9,0.4-1.4c0-0.5-0.1-1-0.4-1.5c-0.3-0.5-0.7-0.8-1.2-1.1
				C111.1,11.3,110.6,11.2,110.1,11.2z M108.4,16v-3.7h1.4c0.5,0,0.8,0,1.1,0.1c0.2,0.1,0.4,0.2,0.5,0.4c0.1,0.2,0.2,0.4,0.2,0.5
				c0,0.3-0.1,0.5-0.3,0.7c-0.2,0.2-0.5,0.3-0.9,0.3c0.1,0.1,0.3,0.1,0.4,0.2c0.2,0.1,0.4,0.4,0.6,0.7l0.5,0.7H111l-0.4-0.6
				c-0.3-0.5-0.5-0.7-0.7-0.9c-0.1-0.1-0.3-0.1-0.5-0.1h-0.4V16H108.4z M109.1,13.9h0.8c0.4,0,0.7-0.1,0.8-0.2
				c0.1-0.1,0.2-0.2,0.2-0.4c0-0.1,0-0.2-0.1-0.3c-0.1-0.1-0.2-0.2-0.3-0.2c-0.1,0-0.3-0.1-0.7-0.1h-0.8V13.9z"/>
		</g>
		<g>
			<path class="st1" d="M230.3,43.8c0.6,0,1.3,0.1,1.9,0.4c0.6,0.3,1.1,0.7,1.4,1.3c0.3,0.6,0.5,1.1,0.5,1.7c0,0.6-0.2,1.2-0.5,1.7
				c-0.3,0.6-0.8,1-1.4,1.3c-0.6,0.3-1.3,0.5-1.9,0.5c-0.7,0-1.3-0.2-1.9-0.5c-0.6-0.3-1.1-0.7-1.4-1.3c-0.3-0.6-0.5-1.1-0.5-1.7
				c0-0.6,0.2-1.2,0.5-1.7c0.3-0.6,0.8-1,1.4-1.3C229,44,229.7,43.8,230.3,43.8z M230.3,44.4c-0.5,0-1.1,0.1-1.6,0.4
				c-0.5,0.3-0.9,0.6-1.2,1.1c-0.3,0.5-0.4,0.9-0.4,1.5c0,0.5,0.1,1,0.4,1.4c0.3,0.5,0.7,0.8,1.2,1.1c0.5,0.3,1,0.4,1.6,0.4
				c0.6,0,1.1-0.1,1.6-0.4c0.5-0.3,0.9-0.6,1.2-1.1c0.3-0.5,0.4-0.9,0.4-1.4c0-0.5-0.1-1-0.4-1.5c-0.3-0.5-0.7-0.8-1.2-1.1
				C231.4,44.5,230.9,44.4,230.3,44.4z M228.6,49.2v-3.8h1.4c0.5,0,0.8,0,1.1,0.1c0.2,0.1,0.4,0.2,0.5,0.4c0.1,0.2,0.2,0.4,0.2,0.5
				c0,0.3-0.1,0.5-0.3,0.7c-0.2,0.2-0.5,0.3-0.9,0.3c0.1,0.1,0.3,0.1,0.4,0.2c0.2,0.2,0.4,0.4,0.6,0.7l0.5,0.7h-0.8l-0.4-0.6
				c-0.3-0.5-0.5-0.8-0.7-0.9c-0.1-0.1-0.3-0.1-0.5-0.1h-0.4v1.6H228.6z M229.3,47.1h0.8c0.4,0,0.7-0.1,0.8-0.2
				c0.1-0.1,0.2-0.2,0.2-0.4c0-0.1,0-0.2-0.1-0.3c-0.1-0.1-0.2-0.2-0.3-0.2c-0.1,0-0.3-0.1-0.7-0.1h-0.8V47.1z"/>
		</g>
	</g>
</g>
</svg>
