<?xml version="1.0" encoding="utf-8"?>
<!-- Generator: Adobe Illustrator 22.0.1, SVG Export Plug-In . SVG Version: 6.00 Build 0)  -->
<svg version="1.1" id="圖層_1" xmlns="http://www.w3.org/2000/svg" xmlns:xlink="http://www.w3.org/1999/xlink" x="0px" y="0px"
	 viewBox="0 0 158.3 21.9" style="enable-background:new 0 0 158.3 21.9;" xml:space="preserve">
<style type="text/css">
	.st0{fill:url(#SVGID_1_);}
	.st1{fill:#FFFFFF;}
</style>
<g>
	<g>
		<g>
			
				<radialGradient id="SVGID_1_" cx="-172.4632" cy="-2639.0183" r="15.5609" gradientTransform="matrix(0.5445 0 0 0.5445 101.1435 1442.4927)" gradientUnits="userSpaceOnUse">
				<stop  offset="0" style="stop-color:#F4B1B1"/>
				<stop  offset="0.2367" style="stop-color:#DE7693"/>
				<stop  offset="0.4907" style="stop-color:#C93E77"/>
				<stop  offset="0.6797" style="stop-color:#BC1A65"/>
				<stop  offset="0.7809" style="stop-color:#B70D5E"/>
				<stop  offset="0.8547" style="stop-color:#AB0858"/>
				<stop  offset="1" style="stop-color:#98004D"/>
			</radialGradient>
			<path class="st0" d="M15.7,7.6c0,3.8-3.1,6.8-6.8,6.8c-3.8,0-6.8-3.1-6.8-6.8c0-3.8,3.1-6.8,6.8-6.8C12.7,0.8,15.7,3.9,15.7,7.6z
				"/>
			<g>
				<g>
					<path class="st1" d="M12.1,3.1c-0.1,0-0.1,0-0.2,0c-2,0-3.4,1.5-3.4,3.5c0,0.4,0.1,0.7,0.2,1.1c0,0,0-0.1,0-0.1
						c0-1.8,1.5-3.2,3.2-3.2c1,0,1.9,0.4,2.5,1.2C14.4,4.3,13.5,3.1,12.1,3.1z"/>
				</g>
				<path class="st1" d="M14,6.2c-0.1-1.2-1.3-2.1-2.6-1.9c-0.8,0.1-1.5,0.5-1.9,1C9.7,5.1,10,5,10.3,4.9c1.2-0.3,2.3,0.4,2.5,1.4
					c0.2,1-0.4,1.9-1.5,2.2c0.1,0,0.2,0,0.3,0C13.1,8.5,14.1,7.4,14,6.2z"/>
				<path class="st1" d="M14.2,7c-0.4,2.7-6.5,1.6-6.9,6.7c0.7-2.5,2.7-2.9,4.8-3.3C13.7,10.1,15,9.5,14.2,7L14.2,7z"/>
				<path class="st1" d="M5.6,7.6c0-0.2,0-0.4,0-0.6l-1.1-1c-0.1,0.3-0.1,0.7-0.1,1c0,2.1,1.8,3.9,3.9,3.8c0.3,0,0.5,0,0.7-0.1
					c0,0-0.1,0-0.1,0C7.2,10.9,5.7,9.5,5.6,7.6z"/>
				<path class="st1" d="M8.3,5.5C8.4,5,8.6,4.6,8.9,4.2C7.5,2.6,4.9,3,3.8,4.5C3,5.6,3,7.4,4.6,9.1C3.8,7.4,3.9,5.9,4.7,5.2
					C5.6,4.2,7.2,4.4,8.3,5.5z"/>
			</g>
		</g>
	</g>
	<g>
		<path class="st1" d="M3.1,18.4c0.2,0.2,0.3,0.4,0.3,0.6H3c0-0.2-0.1-0.3-0.2-0.4c-0.1-0.1-0.3-0.2-0.5-0.2c-0.2,0-0.4,0.1-0.6,0.3
			c-0.1,0.2-0.2,0.5-0.2,0.9c0,0.3,0.1,0.6,0.2,0.8c0.1,0.2,0.3,0.3,0.6,0.3c0.2,0,0.4-0.1,0.6-0.3C2.9,20.3,3,20.2,3,20h0.3
			c0,0.3-0.1,0.5-0.3,0.7c-0.2,0.2-0.5,0.4-0.8,0.4c-0.3,0-0.5-0.1-0.7-0.3c-0.3-0.3-0.4-0.7-0.4-1.2c0-0.4,0.1-0.8,0.3-1
			c0.2-0.3,0.5-0.4,0.9-0.4C2.6,18.1,2.9,18.3,3.1,18.4z"/>
		<path class="st1" d="M5.2,19.2h0.5v0.5H5.2V19.2z"/>
		<path class="st1" d="M7.5,18.2h0.4l0.7,1.3l0.7-1.3h0.4l-0.9,1.7V21H8.4v-1.1L7.5,18.2z"/>
		<path class="st1" d="M11.4,19.2h0.5v0.5h-0.5V19.2z"/>
		<path class="st1" d="M13.9,18.2h0.4v1.2h1.4v-1.2h0.4V21h-0.4v-1.3h-1.4V21h-0.4V18.2z"/>
	</g>
	<g>
		<g>
			<g>
				<path class="st1" d="M74.5,12.3h0.4c0.3,0,0.6-0.3,0.6-0.7l0-8.7l-1.1,0V12.3z"/>
				<rect x="71.7" y="6.5" class="st1" width="6.8" height="0.8"/>
				<rect x="71.4" y="3.5" class="st1" width="7.1" height="0.9"/>
				<path class="st1" d="M78.1,5.3c0-0.1,0-0.1,0-0.2c0,0-0.1-0.1-0.2-0.1h-5.8v0.7h5h0.1v0.1v1.7c0,0.1,0,0.2-0.1,0.3
					C77,7.9,76.6,8,76.5,8h-4.4v0.7h5.5c0.3,0,0.5-0.3,0.5-0.6V5.3z"/>
				<path class="st1" d="M73,10.1l-1.5,2.1l-0.1,0.2h0.2l0.8,0c0.2,0,0.4-0.1,0.5-0.3h0l0,0l1.3-2H73z"/>
				<polygon class="st1" points="72.3,9 73,10 74.3,10 73.6,9 				"/>
				<path class="st1" d="M77.1,10.1l1.5,2.1l0.1,0.2h-0.2l-0.8,0c-0.2,0-0.4-0.1-0.5-0.3h0l0,0l-1.3-2H77.1z"/>
				<polygon class="st1" points="77.8,9 77.1,10 75.8,10 76.5,9 				"/>
				<path class="st1" d="M71,3.5l-0.8,8.8h0.5c0.4,0,0.6-0.3,0.7-0.7c0-0.3,0.5-6.8,0.6-8.2H71z"/>
			</g>
			<g>
				<path class="st1" d="M93.3,12.4h0.4c0.3,0,0.5-0.3,0.5-0.7l0-5.3l-1,0V12.4z"/>
				<path class="st1" d="M94.5,9.6l1.8,2.5l0,0l0,0c0.1,0.2,0.3,0.3,0.5,0.3h0.8l0.2,0l-0.1-0.2l-2-2.6H94.5z"/>
				<path class="st1" d="M91.6,9.6l-2,2.6l-0.1,0.2l0.2,0h0.8c0.2,0,0.4-0.1,0.5-0.3l0,0l0,0l1.8-2.5H91.6z"/>
				<rect x="92.4" y="2.9" class="st1" width="1" height="1.8"/>
				<rect x="94.2" y="2.9" class="st1" width="1" height="1.8"/>
				<rect x="89.4" y="4.3" class="st1" width="8.4" height="0.7"/>
				<rect x="89.4" y="9.5" class="st1" width="8.4" height="0.8"/>
				<rect x="90.1" y="6.4" class="st1" width="7.3" height="0.8"/>
				<rect x="90.5" y="8" class="st1" width="6.6" height="0.8"/>
				<polygon class="st1" points="90.5,3.3 91.3,4.6 92.3,4.6 91.5,3.3 				"/>
				<polygon class="st1" points="97.2,3.3 96.4,4.6 95.3,4.6 96.2,3.3 				"/>
				<polygon class="st1" points="93.1,6.6 92.2,6.6 91.6,4.9 92.6,4.9 				"/>
				<polygon class="st1" points="94.5,6.6 95.4,6.6 96,4.9 95,4.9 				"/>
			</g>
			<path class="st1" d="M29.9,4.5c-0.1-0.2-0.3-0.3-0.5-0.3h-0.9h0h-2.1V3.2l-1.5,0v1.1h-3.6v6.6h3.6v1.5h0.8c0.4,0,0.8-0.4,0.8-0.9
				v-0.6h2.1c0.9,0,1.6-0.9,1.6-1.9V5.1C30.1,4.9,30,4.7,29.9,4.5z M22.3,9.8V5.4h2.5v4.4H22.3z M28.9,8.8c0,0.3-0.1,0.5-0.3,0.7
				c-0.2,0.2-0.4,0.3-0.6,0.3h-1.6V5.4h2.5L28.9,8.8z"/>
			<g>
				<path class="st1" d="M33.1,3.2l-2.3,4.5l1.2,0v4.8h0.6c0.3,0,0.6-0.3,0.6-0.7l0-5.2C33.2,6.4,33,6,33,6l1.4-2.7L33.1,3.2z"/>
				<path class="st1" d="M36.7,8.9c0.3,0,0.6-0.2,0.7-0.4c0.1-0.2,2.3-4.5,2.3-4.5l-1.2,0l-2.3,4.7l0.1,0.1
					C36.4,8.8,36.6,8.9,36.7,8.9z"/>
				<path class="st1" d="M36.1,10.7v-2l0,0V3.2l-1.2,0v7.3c0,1.1,0.7,1.9,1.6,1.9l3,0l0.3-1l-2.9,0C36.5,11.5,36.1,11.3,36.1,10.7z"
					/>
			</g>
			<polygon class="st1" points="35.9,8.6 35.9,8.7 35.9,8.6 			"/>
			<g>
				<path class="st1" d="M110.5,6L110.5,6l1.4-2.7l-1.3,0l-2.3,4.5h1.2l0,4.8h0.5c0.2,0,0.3-0.1,0.5-0.2c0.1-0.1,0.2-0.3,0.2-0.5
					V6.6C110.7,6.4,110.5,6,110.5,6z"/>
				<path class="st1" d="M116.6,7.3h-5.3v0.7h2.1l-2.2,4.4h1c0.2,0,0.3-0.1,0.5-0.3l2-4.2h1.5v2.8c0,0.2-0.1,0.5-0.2,0.7
					c-0.1,0.2-0.3,0.3-0.5,0.3l-1.4,0l0.4,0.8l1.4,0c0.8,0,1.5-0.8,1.5-1.8V8.1C117.3,7.6,117,7.3,116.6,7.3z"/>
				<path class="st1" d="M113.2,3.2l-1.8,3.3l0.8,0c0,0,0.5-0.2,0.5-0.2l1.2-2.6h0.6l1.6,2.6h0c0.1,0.2,0.3,0.3,0.5,0.3
					c0,0,0.9,0,0.9,0l-2.2-3.3L113.2,3.2z"/>
			</g>
			<g>
				<path class="st1" d="M144.4,7.9l-1.4,0l1.6,3.7h-4.7l2.3-4.7l-1.4,0l-1.9,3.8v0c-0.1,0.2-0.2,0.5-0.2,0.7c0,0.6,0.2,0.9,0.9,0.9
					l0,0h5.1l0,0h0h0.1v0c0.5,0,0.8-0.2,1-0.5c0.2-0.4,0.1-1-0.2-1.5L144.4,7.9z"/>
				<path class="st1" d="M140,3.5l-2.5,4.4h1c0,0,0.1,0,0.1,0c0,0,0,0,0,0c0.2,0,0.4-0.1,0.5-0.3l0,0l1.9-3.5h2.3l0,0.1l2.1,3.4
					l0-0.1l0.1,0.1c0.1,0.2,0.3,0.3,0.5,0.3c0,0,0,0,0,0c0,0,0,0,0,0l1,0l-2.8-4.4L140,3.5z"/>
			</g>
			<g>
				<path class="st1" d="M102.3,3.4c-0.1-0.1-0.3-0.2-0.4-0.2l-2.3,0h-0.1v0.1l0,9.1v0.1h0.1h0.5h0.1l0,0c0.3,0,0.5-0.3,0.5-0.6
					c0,0,0,0,0,0c0,0,0,0,0,0v0c0,0,0-2.2,0-2.6h0.9v3.3v0.1l0.1,0l1,0l0.1,0v-0.1V4C102.5,3.8,102.4,3.6,102.3,3.4z M100.5,5.8V3.9
					h0.9v1.9L100.5,5.8z M100.5,6.6h0.9v1.7h-0.9V6.6z"/>
				<path class="st1" d="M104.3,6.7L104.3,6.7L104.3,6.7l0.1-2.8h2.1v2.7v0.1h0.1h1h0.1V6.6V4c0-0.4-0.3-0.8-0.6-0.8h-3.5h-0.1v0.1
					l0,3.3v0.1h0.1L104.3,6.7z"/>
				<path class="st1" d="M106.3,10.4l1.4-1.8l0,0v0l0-0.5c0-0.2-0.1-0.4-0.2-0.5c-0.1-0.1-0.3-0.2-0.5-0.2h-3.8h-0.1v0.1l0,0.5V8
					h0.1l3.5,0l-1.2,1.5l-0.7-0.8l0,0h0l-1.3,0l-0.1,0l0.1,0.1l1.4,1.7l-1.5,1.9l-0.1,0.1h0.1l1.1,0c0.2,0,0.4-0.1,0.6-0.4
					c0,0,0,0,0,0l0,0c0,0,0.5-0.6,0.6-0.8l0.9,1.1l0,0l0.1,0l0,0h1.3h0.2l-0.1-0.1L106.3,10.4z"/>
			</g>
			<g>
				<path class="st1" d="M125.4,12.3L125.4,12.3L125.4,12.3L125.4,12.3C125.4,12.3,125.4,12.3,125.4,12.3L125.4,12.3L125.4,12.3z"/>
				<path class="st1" d="M121.7,3.4h-1.2l-0.2,0.5l-2.1,0v0.7h1.7l-1.8,3.3h1v4.5h1v-2.3h5.1v0.7c0,0.2-0.1,0.5-0.2,0.6
					c-0.1,0.2-0.3,0.3-0.5,0.3H123l0.5,1l1.3,0c0.4,0,0.8-0.1,1.1-0.4c0.3-0.3,0.4-0.8,0.4-1.4V6.5c0-0.2-0.1-0.4-0.2-0.6
					c-0.1-0.1-0.3-0.2-0.5-0.2l-5.1,0l0.5-1.1l6,0V3.9h-5.7L121.7,3.4z M125.3,9.4l-5.1,0V8.2l5.1,0V9.4z M125.3,6.4v1.2l-5.1,0V6.4
					H125.3z"/>
			</g>
			<g>
				<path class="st1" d="M131.2,3.3c-0.1-0.1-0.1-0.1-0.2-0.1l-2.8,0v9.2h0.6c0.2,0,0.3-0.1,0.4-0.2c0.1-0.1,0.2-0.3,0.2-0.5v-0.4
					h1.5c0.1,0,0.2-0.1,0.3-0.2c0.1-0.1,0.1-0.2,0.1-0.4V7.2c0,0,0-0.3-0.1-0.3c-0.1-0.1-0.1-0.1-0.2-0.1h0h-0.2l0.5-1.7V3.6
					C131.3,3.5,131.2,3.4,131.2,3.3z M129.3,10.5v-3h1v3H129.3z M129.9,6.8h-0.5V4h1l0.1,0.2L129.9,6.8z"/>
				<polygon class="st1" points="131.3,5.1 131.3,5.1 131.3,5.1 				"/>
				<path class="st1" d="M136.8,10l0-0.7l-1.7,0l-0.4-0.6l-1.6,0l2.4,3.4l0-0.1l0,0.1c0.1,0.2,0.3,0.3,0.5,0.3h1.2l-1.7-2.4H136.8z"
					/>
				<path class="st1" d="M135.5,8c0.4,0,0.8-0.2,1-0.5c0.3-0.3,0.4-0.8,0.4-1.2V4c0-0.4-0.3-0.8-0.7-0.8h-0.8h-3.3v7.6
					c0,1.3,0.3,1.7,1.4,1.7l0.6,0l0.4-0.7h-0.6c-0.4,0-0.8-0.4-0.8-0.9v-2V8H135.5z M135.9,6.3c0,0.2-0.1,0.5-0.2,0.6
					c-0.1,0.2-0.3,0.3-0.5,0.3h-2V5.9h2.7V6.3z M135.9,3.9v1.2h-2.7V3.9L135.9,3.9z"/>
			</g>
			<g>
				<path class="st1" d="M156.2,4.1c0-0.2-0.1-0.5-0.2-0.6c-0.1-0.2-0.3-0.3-0.5-0.3H148l0,0.9l7,0v6.5c0,0.3-0.1,0.5-0.2,0.7
					c-0.1,0.2-0.4,0.2-0.6,0.2l-0.5,0.1l0.3,0.8h0.6c0.4,0,0.8-0.2,1.2-0.6c0.3-0.4,0.5-0.9,0.5-1.4V4.1z"/>
				<rect x="147.7" y="5.3" class="st1" width="6.6" height="0.7"/>
				<path class="st1" d="M153.2,7.3c-0.1-0.1-0.1-0.1-0.2-0.1h-4.7l0,4.4h4.3c0.4,0,0.7-0.3,0.7-0.8l0-3.3
					C153.3,7.5,153.3,7.4,153.2,7.3z M152.1,10.8c-0.1,0.1-0.2,0.2-0.3,0.2h-2.5h-0.1v-0.1V8.1V8h0.1h2.8h0.1v0.1v2.3
					C152.3,10.5,152.2,10.7,152.1,10.8z"/>
			</g>
			<g>
				<path class="st1" d="M47,3.5l1.4,2.1l0,0h0c0.1,0.2,0.3,0.3,0.5,0.3l0.8,0H50l-0.1-0.2l-1.5-2.2H47z"/>
				<path class="st1" d="M46.7,5.5l1.8,2.7l0,0h0c0.1,0.2,0.3,0.3,0.5,0.3l0.8,0H50l-0.1-0.2l-2-2.8H46.7z"/>
				<path class="st1" d="M45.6,5.5l-2,2.8l-0.1,0.2h0.2l0.8,0c0.2,0,0.4-0.1,0.5-0.3h0l0,0l1.8-2.7H45.6z"/>
				<path class="st1" d="M45.4,3.5l-1.6,2.2l-0.1,0.2h0.2l0.8,0c0.2,0,0.4-0.1,0.5-0.3h0l0,0l1.4-2.1H45.4z"/>
				<path class="st1" d="M48.7,8.6c0-0.1-0.1-0.1-0.1-0.1h-3.7v3.9h3.3c0.3,0,0.5-0.3,0.5-0.6v-3C48.7,8.7,48.7,8.6,48.7,8.6z
					 M47.6,11.5c-0.1,0.1-0.1,0.1-0.2,0.1h-1.5h-0.1v-0.1V9.3V9.2h0.1h1.8h0.1v0.1v1.8C47.7,11.3,47.7,11.4,47.6,11.5z"/>
				<polygon class="st1" points="44.4,4.1 44.4,4 40.5,4 40.5,4.8 43.9,4.8 				"/>
				<path class="st1" d="M43,4.3l-2.7,3.8l-0.1,0.2h0.2h0.7c0.2,0,0.4-0.1,0.5-0.3h0l0,0l2.5-3.7H43z"/>
				<rect x="41.7" y="3.1" class="st1" width="0.9" height="1.1"/>
				<polygon class="st1" points="42.7,12.4 41.7,12.4 41.7,6.7 42.7,6.2 				"/>
				<g>
					<polygon class="st1" points="42.7,8.4 43.4,10.5 44.4,10.5 43.7,8.4 					"/>
				</g>
				<g>
					<polygon class="st1" points="42.7,6.5 43.3,8.5 44.3,8.5 43.7,6.5 					"/>
				</g>
			</g>
			<g>
				<path class="st1" d="M65.9,11.2h0.4c0.3,0,0.5-0.3,0.5-0.7l0-7.5l-1,0V11.2z"/>
				<path class="st1" d="M61.7,3.2l-2.3,4.5l1.3,0l0.1-0.1v0.1v4.8h0.4c0.3,0,0.6-0.3,0.6-0.7V6.5c0-0.2-0.2-0.6-0.2-0.6L63,3.2
					L61.7,3.2z"/>
				<path class="st1" d="M63.4,9L63,9.4l0,1.1c0,1.2,0.7,1.9,1.6,1.9l4.2,0l0.3-1h-4.1c-0.5,0-1.3-0.1-1.5-1.2L63.4,9z"/>
				<path class="st1" d="M68.6,4c0-0.1,0-0.1-0.1-0.2c0,0-0.1-0.1-0.1-0.1h-3.6v0.7h2.8h0.1v0.1v1.7c0,0.1,0,0.2-0.1,0.3
					c-0.1,0.1-0.1,0.1-0.2,0.1h-2.6v0.7h3.3c0.3,0,0.5-0.3,0.5-0.6V4z"/>
				<rect x="64.3" y="5.2" class="st1" width="4.6" height="0.8"/>
				<rect x="64.5" y="9.6" class="st1" width="4.2" height="0.8"/>
				<rect x="64.8" y="8.1" class="st1" width="3.7" height="0.8"/>
				<rect x="62.4" y="3.8" class="st1" width="1.2" height="0.9"/>
				<path class="st1" d="M63.3,7.4c0.2-0.5,1.1-3.2,1.2-3.6h-1.1l-1.2,3.6H63.3z"/>
				<path class="st1" d="M63.3,7.4l-1.5,4.8h0.1c0.2,0,0.3,0,0.4,0c0.3,0,0.6-0.1,0.7-0.4c0.1-0.3,1.2-3.8,1.4-4.4H63.3z"/>
			</g>
			<g>
				<path class="st1" d="M52.7,10.5V8.7l0,0V3.2l-1.2,0v7.3c0,0.3-0.1,1.9,1.6,1.9l1.8,0l0.3-0.9l-1.7,0
					C53.1,11.5,52.7,11.3,52.7,10.5z"/>
				<path class="st1" d="M58.2,3.3c0,0-0.1-0.1-0.1-0.1l-6.6,0v2.9h5.9c0.5,0,0.8-0.3,0.8-1V3.5C58.2,3.4,58.2,3.4,58.2,3.3z
					 M57.2,5.3c-0.1,0.1-0.1,0.1-0.2,0.1h-4.5h-0.1V5.3V4.1V4h0.1h4.7h0.1v0.1V5C57.3,5.1,57.2,5.2,57.2,5.3z"/>
				<rect x="52.3" y="7.7" class="st1" width="6.4" height="0.9"/>
				<path class="st1" d="M56.6,11.7c0.2,0.6,0.6,0.8,0.9,0.8l0,0h0.7v0h0.6l0.3-1h-1l0,0c-0.2,0-0.3-0.1-0.4-0.3l0,0l-1.9-5.1h-1.3
					L56.6,11.7L56.6,11.7z"/>
			</g>
			<g>
				<path class="st1" d="M83.4,10.5V8.7l0,0v-6h1.2v7.8c0,0.3,0.1,1.9-1.6,1.9l-0.7,0L82,11.5l0.6,0C83,11.5,83.4,11.3,83.4,10.5z"
					/>
				<path class="st1" d="M87.5,4.8c0-0.1-0.1-0.1-0.1-0.1h-7l0,2.2h6.6c0.3,0,0.5-0.3,0.5-0.6V5C87.6,4.9,87.5,4.9,87.5,4.8z
					 M86.5,6c-0.1,0.1-0.2,0.1-0.2,0.1h-4.8h-0.1V6V5.6V5.5h0.1h5.1h0.1v0.1v0.1C86.6,5.8,86.6,5.9,86.5,6z"/>
				<rect x="79.7" y="8.9" class="st1" width="8.6" height="0.8"/>
				<rect x="79.7" y="3.6" class="st1" width="8.4" height="0.8"/>
				<path class="st1" d="M87.7,7.7c0-0.1,0-0.1-0.1-0.2c0,0-0.1-0.1-0.1-0.1h-7v0.7h6.2h0.1v0.1V10c0,0.1,0,0.2-0.1,0.3
					c-0.1,0.1-0.5,0.1-0.5,0.1h-5.7v0.7h6.8c0.3,0,0.5-0.3,0.5-0.6V7.7z"/>
			</g>
		</g>
		<g>
			<path class="st1" d="M25.7,15.8c-0.2-0.5-1-0.6-1.6-0.6c-1,0-1.8,0.4-1.8,1.1c0,0.7,0.5,1.2,1.9,1.2c0.5,0,1.4-0.1,1.6-0.8h0.7
				c-0.3,1.1-2,1.1-2.5,1.1c-1.3,0-2.5-0.4-2.5-1.5c0-0.9,1-1.5,2.6-1.5c1.4,0,2.2,0.4,2.3,0.9H25.7z"/>
			<path class="st1" d="M30.7,17.8H30v-1.3c0-0.3-0.2-0.5-0.8-0.5c-0.6,0-1.1,0.2-1.1,0.7v1.1h-0.7V15H28v1h0
				c0.2-0.1,0.5-0.3,1.2-0.3c0.6,0,1.4,0.1,1.4,0.7V17.8z"/>
			<path class="st1" d="M34.3,17.8v-0.3h0c-0.3,0.2-0.7,0.4-1.3,0.4c-0.6,0-1.3-0.1-1.3-0.6v-1.5h0.7v1.4c0,0.3,0.3,0.4,0.8,0.4
				c0.9,0,1.1-0.4,1.1-0.7v-1.1H35v2H34.3z"/>
			<path class="st1" d="M39.4,17.8h-0.7v-1.3c0-0.4-0.2-0.5-0.9-0.5c-0.4,0-1.1,0.1-1.1,0.7v1.1H36v-2h0.7V16h0
				c0.2-0.1,0.5-0.3,1.2-0.3c0.6,0,1.4,0.1,1.4,0.7V17.8z"/>
			<path class="st1" d="M43.8,17.6c0,0.3,0,1-1.9,1c-0.5,0-1.4-0.1-1.6-0.6H41c0.1,0.3,0.8,0.3,0.9,0.3c1.2,0,1.2-0.5,1.2-0.7v-0.1
				h0v0c-0.2,0.1-0.5,0.3-1.1,0.3c-1.4,0-1.8-0.7-1.8-1.1c0-0.6,0.6-1,1.7-1c0.7,0,1.1,0.2,1.2,0.3h0v-0.3h0.7V17.6z M42,17.5
				c0.4,0,1.1-0.1,1.1-0.7c0-0.3-0.1-0.9-1.1-0.9c-1.1,0-1.1,0.5-1.1,0.8C40.9,17.2,41.2,17.5,42,17.5z"/>
			<path class="st1" d="M48.1,17.8h-0.7v-1.3c0-0.3-0.2-0.5-0.8-0.5c-0.6,0-1.2,0.2-1.2,0.7v1.1h-0.7V15h0.7v1h0
				c0.2-0.1,0.5-0.3,1.2-0.3c0.6,0,1.4,0.1,1.4,0.7V17.8z"/>
			<path class="st1" d="M50.6,17.8h-0.7l-1.2-2h0.8l0.8,1.6h0l0.8-1.6h0.8l0.8,1.6h0l0.8-1.6h0.7l-1.2,2h-0.7l-0.8-1.6h0L50.6,17.8z
				"/>
			<path class="st1" d="M54.7,16.4c0-0.5,0.7-0.7,1.7-0.7c0.3,0,1.5,0,1.5,0.6v1.2c0,0.1,0.1,0.1,0.2,0.1c0.1,0,0.2,0,0.2,0v0.3
				c-0.1,0-0.2,0-0.4,0c-0.6,0-0.7-0.2-0.7-0.3c-0.3,0.1-0.7,0.3-1.5,0.3c-0.8,0-1.3-0.2-1.3-0.6c0-0.2,0.1-0.6,1.3-0.6l1.1-0.1
				c0.2,0,0.4,0,0.4-0.2c0-0.2-0.3-0.3-1-0.3c-0.8,0-0.9,0.2-0.9,0.4H54.7z M57.2,16.7c-0.1,0-0.3,0.1-1.1,0.1
				c-0.3,0-0.9,0.1-0.9,0.3c0,0.2,0.2,0.4,0.7,0.4c0.6,0,1.3-0.2,1.3-0.5V16.7z"/>
			<path class="st1" d="M63.7,17.8H63v-1.1L60.8,15h0.9l1.6,1.3L65,15h0.9l-2.1,1.7V17.8z"/>
			<path class="st1" d="M69.1,17.8v-0.3h0c-0.3,0.2-0.6,0.4-1.3,0.4c-0.6,0-1.3-0.1-1.3-0.6v-1.5h0.7v1.4c0,0.3,0.3,0.4,0.8,0.4
				c0.9,0,1.1-0.4,1.1-0.7v-1.1h0.7v2H69.1z"/>
			<path class="st1" d="M70.8,15.7h0.6V16h0c0.2-0.1,0.5-0.3,1.3-0.3c0.7,0,1,0.2,1.1,0.3c0.3-0.2,0.6-0.3,1.3-0.3
				c0.4,0,1.3,0.1,1.3,0.7v1.4h-0.7v-1.3c0-0.3-0.2-0.5-0.8-0.5c-0.6,0-1,0.3-1,0.6v1.2h-0.7v-1.4c0-0.2-0.1-0.4-0.7-0.4
				c-0.4,0-1.1,0.1-1.1,0.7v1.1h-0.7V15.7z"/>
			<path class="st1" d="M78,15.4V15h-0.7v0.4H78z M78,15.7h-0.7v2H78V15.7z"/>
			<path class="st1" d="M82.4,17.8h-0.7v-1.3c0-0.4-0.2-0.5-0.9-0.5c-0.4,0-1.1,0.1-1.1,0.7v1.1h-0.7v-2h0.7V16h0
				c0.1-0.1,0.5-0.3,1.2-0.3c0.6,0,1.4,0.1,1.4,0.7V17.8z"/>
			<path class="st1" d="M86.8,17.6c0,0.3,0,1-1.9,1c-0.5,0-1.4-0.1-1.6-0.6H84c0.1,0.3,0.8,0.3,0.9,0.3c1.2,0,1.2-0.5,1.2-0.7v-0.1
				h0v0c-0.2,0.1-0.6,0.3-1.1,0.3c-1.4,0-1.8-0.7-1.8-1.1c0-0.6,0.6-1,1.7-1c0.7,0,1.1,0.2,1.2,0.3h0v-0.3h0.6V17.6z M85,17.5
				c0.4,0,1.1-0.1,1.1-0.7c0-0.3-0.1-0.9-1.1-0.9c-1.1,0-1.1,0.5-1.1,0.8C83.9,17.2,84.3,17.5,85,17.5z"/>
			<path class="st1" d="M93.7,15h0.8v2.8h-0.8v-1.3h-2.9v1.3H90V15h0.8v1.2h2.9V15z"/>
			<path class="st1" d="M99.1,17.1c0,0.1-0.2,0.4-0.7,0.6c-0.2,0.1-0.5,0.1-1.1,0.1c-1.2,0-1.8-0.4-1.8-1c0-0.6,0.6-1.1,2-1.1
				c1.2,0,1.8,0.5,1.8,1.2h-3c0,0.4,0.4,0.7,1.2,0.7c0.6,0,1-0.3,1.1-0.4H99.1z M98.4,16.6c0-0.3-0.3-0.6-1.1-0.6
				c-0.6,0-1.2,0.3-1.2,0.6H98.4z"/>
			<path class="st1" d="M99.9,16.4c0-0.5,0.7-0.7,1.7-0.7c0.3,0,1.5,0,1.5,0.6v1.2c0,0.1,0.1,0.1,0.2,0.1c0.1,0,0.1,0,0.2,0v0.3
				c-0.1,0-0.2,0-0.4,0c-0.6,0-0.7-0.2-0.7-0.3c-0.3,0.1-0.7,0.3-1.5,0.3c-0.8,0-1.3-0.2-1.3-0.6c0-0.2,0.1-0.6,1.3-0.6l1.1-0.1
				c0.2,0,0.4,0,0.4-0.2c0-0.2-0.3-0.3-1-0.3c-0.8,0-0.9,0.2-0.9,0.4H99.9z M102.4,16.7c-0.1,0-0.3,0.1-1.1,0.1
				c-0.3,0-0.9,0.1-0.9,0.3c0,0.2,0.2,0.4,0.7,0.4c0.6,0,1.3-0.2,1.3-0.5V16.7z"/>
			<path class="st1" d="M105,17.8h-0.7V15h0.7V17.8z"/>
			<path class="st1" d="M106.8,16v1.3c0,0.2,0.3,0.2,0.4,0.2h0.2v0.3c-0.2,0-0.4,0-0.5,0c-0.7,0-0.8-0.2-0.8-0.4V16h-0.6v-0.3h0.6
				v-0.6h0.7v0.6h0.7V16H106.8z"/>
			<path class="st1" d="M111.5,17.8h-0.7v-1.3c0-0.3-0.2-0.5-0.8-0.5c-0.6,0-1.1,0.2-1.1,0.7v1.1h-0.7V15h0.7v1h0
				c0.2-0.1,0.6-0.3,1.2-0.3c0.6,0,1.4,0.1,1.4,0.7V17.8z"/>
			<path class="st1" d="M115.1,16.4c-0.1-0.3-0.4-0.4-1-0.4c-0.9,0-1.1,0.4-1.1,0.8c0,0.3,0.2,0.8,1.1,0.8c0.5,0,0.9-0.2,1-0.5h0.7
				c-0.1,0.3-0.5,0.8-1.7,0.8c-1.1,0-1.8-0.4-1.8-1c0-0.6,0.6-1.1,2-1.1c1.1,0,1.5,0.4,1.5,0.7H115.1z"/>
			<path class="st1" d="M116.4,16.4c0-0.5,0.7-0.7,1.7-0.7c0.3,0,1.5,0,1.5,0.6v1.2c0,0.1,0.1,0.1,0.2,0.1c0.1,0,0.1,0,0.2,0v0.3
				c-0.1,0-0.2,0-0.4,0c-0.6,0-0.7-0.2-0.7-0.3c-0.3,0.1-0.7,0.3-1.5,0.3c-0.7,0-1.3-0.2-1.3-0.6c0-0.2,0.1-0.6,1.3-0.6l1.1-0.1
				c0.2,0,0.3,0,0.3-0.2c0-0.2-0.3-0.3-1-0.3c-0.8,0-0.9,0.2-0.9,0.4H116.4z M118.9,16.7c-0.1,0-0.3,0.1-1.1,0.1
				c-0.3,0-0.9,0.1-0.9,0.3c0,0.2,0.2,0.4,0.8,0.4c0.6,0,1.3-0.2,1.3-0.5V16.7z"/>
			<path class="st1" d="M121.6,17.8h-0.7v-2h0.6v0.3h0c0.3-0.2,0.6-0.4,1.2-0.4c0.1,0,0.1,0,0.2,0v0.4h-0.3c-0.6,0-1,0.2-1,0.5V17.8
				z"/>
			<path class="st1" d="M126.8,17.1c0,0.1-0.2,0.4-0.7,0.6c-0.2,0.1-0.4,0.1-1.1,0.1c-1.2,0-1.8-0.4-1.8-1c0-0.6,0.6-1.1,2-1.1
				c1.2,0,1.8,0.5,1.8,1.2h-3c0,0.4,0.4,0.7,1.2,0.7c0.6,0,1-0.3,1.1-0.4H126.8z M126.2,16.6c0-0.3-0.3-0.6-1.1-0.6
				c-0.6,0-1.1,0.3-1.1,0.6H126.2z"/>
			<path class="st1" d="M133.9,15.8c-0.2-0.5-1-0.6-1.6-0.6c-1,0-1.9,0.4-1.9,1.1c0,0.7,0.5,1.2,1.9,1.2c0.5,0,1.4-0.1,1.6-0.8h0.7
				c-0.3,1.1-2,1.1-2.5,1.1c-1.3,0-2.5-0.4-2.5-1.5c0-0.9,1-1.5,2.6-1.5c1.5,0,2.2,0.4,2.3,0.9H133.9z"/>
			<path class="st1" d="M137.2,15.7c1.3,0,1.9,0.5,1.9,1.1c0,0.5-0.6,1.1-1.9,1.1c-1.3,0-1.9-0.6-1.9-1.1
				C135.3,16.2,135.9,15.7,137.2,15.7z M137.2,17.5c1,0,1.2-0.5,1.2-0.8c0-0.3-0.2-0.8-1.2-0.8c-1,0-1.2,0.5-1.2,0.8
				C136,17,136.2,17.5,137.2,17.5z"/>
			<path class="st1" d="M140.9,17.8H140v-0.4h0.8V17.8z"/>
			<path class="st1" d="M142.2,17.8h0.4c0,0.2-0.1,0.4-0.4,0.4v0.2c0.2,0,0.8-0.1,0.8-0.6v-0.4h-0.8V17.8z"/>
			<path class="st1" d="M146.1,17.4h2.9v0.3h-3.6V15h0.8V17.4z"/>
			<path class="st1" d="M150.5,16v1.3c0,0.2,0.3,0.2,0.4,0.2h0.2v0.3c-0.3,0-0.4,0-0.5,0c-0.7,0-0.8-0.2-0.8-0.4V16h-0.6v-0.3h0.6
				v-0.6h0.7v0.6h0.7V16H150.5z"/>
			<path class="st1" d="M155.2,17.8h-0.6v-0.3h0c-0.3,0.3-0.8,0.3-1.2,0.3c-1.4,0-1.8-0.7-1.8-1.1c0-0.6,0.6-1,1.7-1
				c0.7,0,1.1,0.2,1.2,0.3l0,0v-1h0.7V17.8z M153.4,17.5c0.4,0,1.1-0.1,1.1-0.7c0-0.3-0.1-0.9-1.1-0.9c-1.1,0-1.1,0.5-1.1,0.8
				C152.2,17.2,152.6,17.5,153.4,17.5z"/>
			<path class="st1" d="M157.1,17.4h-0.8v0.4h0.8V17.4z"/>
		</g>
	</g>
</g>
</svg>
