<?xml version="1.0" encoding="utf-8"?>
<!-- Generator: Adobe Illustrator 22.0.1, SVG Export Plug-In . SVG Version: 6.00 Build 0)  -->
<svg version="1.1" id="圖層_1" xmlns="http://www.w3.org/2000/svg" xmlns:xlink="http://www.w3.org/1999/xlink" x="0px" y="0px"
	 viewBox="0 0 157.4 18.6" style="enable-background:new 0 0 157.4 18.6;" xml:space="preserve">
<style type="text/css">
	.st0{fill:#E41F1F;}
	.st1{fill:#FFFFFF;}
</style>
<g>
	<path class="st0" d="M8.6,14.8c0.1,0,0.1,0,0.1,0c3.3,0,5.9-2.7,5.9-6c0-1.7-0.8-3.4-2-4.6l0,0c-0.3-0.2-0.5-0.5-0.5-0.9V1.5
		c0-0.3,0.2-0.6,0.5-0.7V0.8h2.3c0.9,0,1.6,0.8,1.6,1.7v12.4c0,0.9-0.8,1.7-1.6,1.7H8.6V14.8L8.6,14.8z M8.6,12h3.3
		c0.3,0,0.5-0.1,0.7-0.2c0.2-0.1,0.4-0.3,0.5-0.5c0.1-0.2,0.2-0.5,0.2-0.8c0-0.3-0.1-0.5-0.2-0.8l-2.7-5.2V1.6h0.5
		c0.1,0,0.2-0.1,0.2-0.2V1c0,0-0.1-0.2-0.2-0.2H9.3C9.1,0.8,9.1,0.9,9.1,1v0.5c0,0,0,0,0,0v3.2l0,0.4l2.8,5.3c0.1,0,0.1,0.1,0.1,0.2
		c-0.1,0-0.1,0-0.1,0H8.6V12z M2.7,0.8h2v0.1c0.3,0,0.5,0.4,0.5,0.7v1.8c0,0.4-0.2,0.8-0.5,1v0c-1.2,1.1-2,2.7-2,4.4
		c0,3.2,2.6,6,5.9,6v1.8H2.7c-0.9,0-1.7-0.8-1.7-1.7V2.5C1,1.5,1.8,0.8,2.7,0.8L2.7,0.8z M8.6,10.5l-3.1,0.1c-0.2,0-0.2-0.1-0.3-0.1
		l0,0l0,0l0,0L8.1,5l0.1-0.4l0.1-3.5l0,0V1c0,0-0.1-0.2-0.2-0.2H6.4C6.3,0.8,6.2,0.9,6.2,1v0.5c0,0.1,0.1,0.2,0.2,0.2h0.5l0,2.8
		L4,9.8c-0.1,0.2-0.2,0.5-0.2,0.7c0,0.2,0.1,0.5,0.2,0.7c0.1,0.2,0.3,0.4,0.6,0.6C4.8,11.9,5.1,12,5.4,12l3.1,0V10.5z"/>
	<path class="st1" d="M28.2,2.7c0.7,0,1.4,0,2.2,0C30.8,2.7,31,3,31,3.5v4.6C31,8.7,30.5,9,29.9,9h-1.7V7.8h1.4V3.8h-1.4V2.7z
		 M25.2,10.4L25.1,9c-0.5,0-0.9,0-1.4,0V7.9h1.4l-0.1-4.2h-1.4v-1h1.4v-1h1.6v1c0.5,0,1,0,1.4,0v1.1h-1.4v4.1h1.4V9h-1.4l-0.1,0.8
		c0,0.3-0.5,0.6-0.8,0.6L25.2,10.4z M23.8,9c-0.9,0-1.8,0-2.8,0c0-0.1,0-0.1,0-0.1h0V2.8l0,0l0,0h2.8v1h-1.4v4.2h1.4V9z"/>
	<path class="st1" d="M154.2,2.7h-4.4v-1l5-0.1c0.7,0.1,0.9,0.6,1,1l-0.1,6.2c0,1.2,0.1,1.9-1.4,2v0.1H153l-0.4-0.9h1.3
		c0.4,0,0.2-0.4,0.3-0.6L154.2,2.7L154.2,2.7z M149.8,10.1c0.5,0,1.1,0,1.8,0c0.1,0,1.1-0.4,1.1-1.2l-0.1-3.2c0-0.3-0.2-0.4-0.4-0.4
		c-0.8,0-1.6,0-2.4,0v1h1.5l0,2.4c0,0.2-0.1,0.4-0.3,0.4h-1.3V10.1L149.8,10.1z M149.8,4.5c1.2,0,2.4,0,3.5,0c0-0.3,0-0.7,0-1h-3.5
		V4.5z M149.8,2.7h-3.5v-1c0,0.1,0,0,0,0h3.5V2.7L149.8,2.7z M149.8,3.6v1c-1.3,0-2.7,0.1-3.9,0.1c0-0.3-0.1-0.8,0-1H149.8
		L149.8,3.6z M149.8,5.4v1l-2.4-0.1v2.8h2.4v0.9c-5.3,0-1.8,0-3.5,0v-0.1c0-1.5,0-3.1,0-4.7h0.1C147.6,5.4,148.7,5.4,149.8,5.4z"/>
	<path class="st1" d="M141.3,1.7c0.6-0.1,1,0.3,1.4,0.8l2.4,3.6h-0.8c-0.4,0-0.8-0.2-1.2-0.7l-1.9-2.9h-1.4V1.7H141.3L141.3,1.7z
		 M139.7,10.7V9.7h2.6l-2-3.4h0.9c0.5-0.1,0.9,0.2,1.1,0.7l1.4,2.4c0.5,0.9-0.4,1.1-1.1,1.3l0,0H139.7z M139.7,2.5h-1.9l-1.8,2.9
		c-0.2,0.4-0.6,0.7-1.1,0.7h-0.7l2.6-4.5h0.3h0.3h0.4h1.8V2.5L139.7,2.5z M139.7,9.7h-2.6l2.2-4.6l-1.3,0l-2.4,4.5
		c0.1,0-0.2,0.9,1.1,1.1l0,0h3V9.7z"/>
	<path class="st1" d="M103.3,1.7h1.5l-2,3.1c0.2,0,0.3,0.1,0.3,0.3v5c-0.1,0.5-0.5,0.7-0.8,0.8h-0.6V5.9h-1.2V5.8L103.3,1.7z"/>
	<path class="st1" d="M108,1.7h-2.3L103.9,5h0.7c0.4,0,0.6-0.2,0.8-0.5l1-2h1.4l1.3,2c0.2,0.4,0.6,0.5,1,0.5h0.8l-2-2.9
		C108.7,1.7,108.4,1.7,108,1.7z"/>
	<path class="st1" d="M110.3,6.3v3.3c0,0.5-0.6,0.9-1.3,1.1l0,0h-0.3h-1.6L107,9.8h1.8c0.2,0,0.3,0,0.4-0.2V6.5h-2l-1.8,3.5
		c-0.2,0.4-0.8,0.6-1.2,0.5h-0.6l2.2-4h-2l-0.1-0.8h5.6h0.1l0,0C109.9,5.7,110.3,5.9,110.3,6.3z"/>
	<polygon class="st1" points="59.5,3.8 58.5,3.8 59.4,4.5 58.5,5.4 59.5,5.4 60,5 60.5,5.4 61.4,5.4 60.5,4.5 61.3,3.8 60.3,3.8 
		59.9,4.1 	"/>
	<polygon class="st1" points="60.2,1.7 61.3,1.8 60.4,2.5 61.4,3.3 60.4,3.3 59.9,2.9 59.5,3.3 58.4,3.3 59.3,2.4 58.4,1.7 
		59.4,1.7 59.9,2.1 	"/>
	<path class="st1" d="M57.4,9.8l2.2,0V9.2h-4.6V8.4L60,8.4l0.8-0.7h-3.7c-0.2,0-0.2-0.8,0-0.8h5.1l0,0l0,0c0.1,0.1,0.1,0.2,0.1,0.3
		h0c0,0,0,0,0,0.1V7.3l0,0l-0.1,0.3l0,0l-0.7,0.7h3.4v0.8h-3.9v1c-0.1,0.3,0,0.4-0.4,0.5h-2.7L57.4,9.8z"/>
	<path class="st1" d="M54.9,7.6c0-0.6,0-1.3,0-1.9h0.6l0,0c0-0.1,0-0.1,0-0.1l0,0V5.1l0,0c0-1.1,0-2.2,0-3.2l0,0V1.6h0.2
		c0.7,0,1.4,0,2.2,0H58l-0.1,0.7h-1.3v0.2v0.4v0.1H58c0,0.2,0,0.7,0,0.7h-1.4v0.6H58v0.7h-1.4v0.8h6.6V5h-1.4c0-0.2,0-0.4,0-0.6
		l1.3-0.1V3.7h-1.3V3h1.3l-0.1-0.7h-1.3c0-0.1,0-0.5,0-0.6l2-0.1c0.2,0,0.4,0.3,0.4,0.5v3.6c0.1,0,0.2,0,0.3,0
		c0.1,0,0.2,0.3,0.3,0.4c0,0.6,0.1,1,0.1,1.5h-1.3l0-1.2c-2.6,0-4.8,0-7.5,0c0,0.6-0.6,1.2-0.9,1.3C55.1,7.7,55,7.7,54.9,7.6z"/>
	<path class="st1" d="M49.5,9.4c0,0.3,0.3,0.3,0.5,0.3c1.3,0,2.4,0.1,3.6,0.1c0,0.1-0.4,0.9-0.4,0.9c-0.2,0-0.3,0-0.4,0
		c-0.2,0-2.8,0-2.8,0.1c-0.8-0.1-2-0.3-2-1.7V1.5c0,0,1.2,0,1.4,0c0,1.5,0,2.8,0,4.4h0.5l2.1-3.5l1.3,0l-2.3,4
		c-0.2,0.3-0.5,0.5-0.9,0.5h-0.8V9.4L49.5,9.4z M45.9,4.3L45.9,4.3c0.1,0,0.4,0.1,0.4,0.3v5.2c0,0.3-0.3,0.6-0.5,0.8h-0.4
		c-0.2,0-0.3-0.1-0.3-0.2V5.6l-0.3,0.5h-1.2l2.8-4.7h1.2L45.9,4.3z"/>
	<path class="st1" d="M37.9,1.9h4.2l0,0c0.3,0,0.7,0.3,0.7,0.6l0,0v6.7v0l0,0c-0.1,0.8-0.7,1.5-1.6,1.5h-3.4V10c1-0.1,2-0.1,3.1-0.1
		c0.2,0,0.7-0.4,0.7-0.7c0-2.2,0-4.4,0-6.6h-3.8V1.9L37.9,1.9z M37.9,9.4c0.3-0.1,0.8-0.3,0.9-0.5l0.7-1.1l0.5,1.6H40H41h0.3l-1-3.1
		L41,4.8h-0.9l-0.2,0.4l-0.3-1h1.2V3.7h0l0-0.1l0,0l0,0l-0.4-0.7h-0.6l0.3,0.6h-0.7l-0.1-0.6h-1.4L38,2.9h-0.1l0.2,0.5h-0.2v0.7h0.4
		l0.7,2.6l-0.9,1.5c-0.1,0.1-0.2,0.3-0.3,0.4V9.4z M36.2,1.9h1.7v0.7l-1.7-0.1V1.9L36.2,1.9z M37.9,10.8h-1.7V10c0.6,0,1.1,0,1.7,0
		V10.8L37.9,10.8z M37.9,3.4v0.7h-1.7V3.4H37.9L37.9,3.4z M37.9,8.5v0.9c-0.1,0-0.2,0-0.2,0h-1.6V8.6h1.4
		C37.7,8.6,37.8,8.6,37.9,8.5L37.9,8.5z M36.2,8V7.1h0.6V5.5h-0.6V4.8h1.2l0,0c0.1,0,0.2,0.1,0.2,0.2l0,0v2.4v0.1l0,0
		c0,0.3-0.2,0.5-0.4,0.5H36.2z M33,10.8c-0.2,0-0.4-0.3-0.4-0.4V2.1c0-0.1,0.2-0.2,0.2-0.2h3.4v0.7h-2.4C33.8,2.7,33.8,9,33.8,10
		c0.9,0,1.6,0,2.4,0v0.8H33L33,10.8z M36.2,3.4h-1.7v0.7h1.7V3.4L36.2,3.4z M36.2,4.8h-1.4l-0.1,0.1v3c0,0,0.1,0.1,0.1,0.1h1.3V7.1
		h-0.6l0.1-1.5h0.5V4.8L36.2,4.8z M36.2,8.6h-1.7v0.8h1.7V8.6z"/>
	<path class="st1" d="M74.8,10.5V8.6l0.1,0.2h1.6l0.1,0.7h-1.1l0.9,1.1h-0.7C75.4,10.6,75.1,10.6,74.8,10.5L74.8,10.5z M74.8,8V7.3
		h1.9V8H74.8L74.8,8z M74.8,6.7V5.9C75,5.8,75,5.7,75,5.6v-4h1.1v0.1v3.9c0,0.1-0.1,0.3-0.1,0.4c-0.3,0.4-0.7,0.6-1.1,0.7H74.8z
		 M74.8,5.9v0.8h-1l-0.1-0.3V5.9L74.8,5.9C74.7,5.9,74.7,5.9,74.8,5.9L74.8,5.9z M74.8,7.3V8h-0.5l0.5,0.6v1.9
		c-0.3-0.1-0.5-0.3-0.7-0.5l-0.4-0.6V7.3H74.8L74.8,7.3z M73.7,5.4V1.7h0.5v3.7H73.7z M68.2,3.6h0.9V2.9h-0.9V2.2h0.9V1.7h1v0.5h2.2
		l0,0.7h-2.2v0.7h2.2v0.6l-2.2,0.1v0.6h2.2c0,0.1,0.1,0.1,0.1,0.2v1.8H72v0.5h1.7v2.1L72.8,8h-2v1.2c0.1,0.2,0.4,0.2,0.6,0.2h1.3
		l-0.3,0.9h-1.2c-0.5,0.1-1.3,0.1-1.5-0.7V8H69l-0.9,1.8V7.3h2.5V6.8h0.7V5.5h-1.3v1.4h-1V5.5h-0.9V4.8h0.9V4.2l-0.9,0.1V3.6
		L68.2,3.6z M73.7,1.7h-0.5v3.7h0.5V1.7L73.7,1.7z M73.7,5.9h-0.2l0.2,0.5V5.9z M67.2,3.6h1v0.7h-1.6V3.8h-0.4l1.1-2.1h1l-0.3,0.5
		h0.3v0.7h-0.6L67.2,3.6L67.2,3.6z M68.2,4.8v0.7h-0.4v0.8c0,0.3-0.2,0.5-0.4,0.5H67c-0.1-0.1-0.2-0.1-0.2-0.3V5.2
		C66.9,5,67,4.9,67.2,4.8H68.2L68.2,4.8z M68.2,7.3v2.6L68,10.1c-0.3,0.5-0.8,0.4-1.2,0.4h-0.5L67.7,8h-1.5V7.3H68.2z"/>
	<path class="st1" d="M120.8,9.8c0,0.5-0.6,0.9-1.3,1l0,0h-0.3h-1.7l-0.3-0.9l1.9-0.1c0.1,0,0.3,0,0.3-0.3v-1h-2.7V7.7h2.7V6.7h-2.7
		V6h2.7V5h-2.7V4.2h3.4c0.3,0,0.6,0.2,0.6,0.5v0.2v4.8V9.8L120.8,9.8z M116.8,2.4h5v0.8l-5,0V2.4z M116.8,8.5h-2.7v1.6
		c0,0.5-0.4,0.6-0.7,0.6h-0.6V6.2h-1.1l1.8-2.9h-1.7V2.4h2.2l0.3-0.7h1.3l-0.3,0.7h1.6v0.8h-2.1l-0.6,1h2.6V5l-2.7,0.1V6h2.7v0.8
		l-2.7,0.1v0.9h2.7V8.5z"/>
	<path class="st1" d="M94,10.6l1.9-1.9l-1.6-1.5h1.7l0.7,0.6C96.9,7.7,98,6.6,98,6.5l-3.9,0V5.6h4.6c0.3,0,0.6,0.1,0.6,0.5v0.7
		c0,0.1,0,0.2,0,0.3l-1.6,1.6l2,2h-1c-0.4,0-0.7,0-0.9-0.2l-0.9-1l-0.9,0.9c-0.1,0.2-0.3,0.2-0.5,0.2H94L94,10.6z M91.7,7.6V6.8h0.6
		V5.1h-0.6V4.3h0.6V2.7h-0.6V1.9h1.1c0.3,0,0.6,0.1,0.6,0.5v8.3h-1.1V7.6H91.7L91.7,7.6z M94.5,1.9c1.5,0,2.8,0,4.3,0
		C98.9,1.9,99,2,99,2.2v2.7h-1.2V2.8h-2.3l0,1.9c0,0.2-0.4,0.4-0.6,0.4l-0.6,0.1V4.5V2C94.4,2,94.4,1.9,94.5,1.9z M91.7,1.9v0.8
		h-0.6v1.6h0.6v0.8h-0.6v1.7h0.6v0.8h-0.6V10c0,0.4-0.2,0.6-0.3,0.6h-0.7V1.9H91.7z"/>
	<path class="st1" d="M86.8,7.8h1.3v0.8h-1.3V7.8L86.8,7.8z M86.8,9.4l1.2,1.4h-0.8c-0.2,0-0.3,0-0.5,0V9.4L86.8,9.4z M86.8,7.2V6.5
		h0.4V6h-0.4V5.3H87h0V4.7h-0.3V4h0.5c0.4,0,0.5,0.3,0.7,0.6c0.1,0.2,0.1,0.7-0.2,1c0.5,0.5,0,1.6-0.2,1.6
		C87.3,7.1,87.1,7.2,86.8,7.2L86.8,7.2z M86.8,3V2.1h1.4v0.8L86.8,3z M83.1,3.3h0.6v0.6L84.9,4v2.4c0,0.6-0.1,0.8-0.4,0.8
		c-0.2,0.1-0.6,0-0.9,0v0.6h3.1v0.8H86l0.7,0.8v1.4c-0.3,0-0.5-0.2-0.7-0.4l-1.5-1.8h-0.9v1.7c0,0.4-0.2,0.6-0.6,0.6V6.5H84V5.8
		h-0.9V5.1H84L84,4.5l-0.9,0V3.3L83.1,3.3z M86.8,2.1h-0.5V1.6h-1.2v0.5h-2V3h2v0.4h1.2V3h0.5V2.1L86.8,2.1z M86.8,4h-1.2v0.7h1.2V4
		L86.8,4z M86.8,5.3h-1.2V6h1.2V5.3L86.8,5.3z M86.8,6.5h-1.2v0.7c0.3,0,0.8,0,1.2,0V6.5z M82.4,8.5h-0.8l-1.6,2
		c-0.1,0.1-0.3,0.2-0.6,0.2V9.3c0.2-0.3,0.4-0.5,0.7-0.8l-0.7,0.1V7.7h3V7.2c-0.3,0-0.7,0-1.2,0V7.1l0-3.2h1.2V3.3h0.8v1.1h-1v0.7h1
		v0.7h-1v0.7h1v4.3c0,0,0,0,0,0.1l-0.7-0.1V8.5L82.4,8.5z M83.1,2.1H81V1.6h-1.2v0.5h-0.4V3h0.4v0.4H81V2.9L83.1,3V2.1L83.1,2.1z
		 M79.4,7.2c0.5,0,1.1,0,1.2,0V6.5h-1.2V7.2L79.4,7.2z M79.4,6h1.2V5.3h-1.2V6L79.4,6z M79.4,4.6h1.2V4h-1.2V4.6z M79.4,10.8
		c-0.1,0-0.1,0-0.2,0h-0.2h-1c0.5-0.6,0.9-1,1.3-1.5V10.8L79.4,10.8z M79.4,8.5h-1.4V7.7h1.4V8.5L79.4,8.5z M79.4,2.1V3H78V2.1H79.4
		L79.4,2.1z M79.4,4v0.7H79v0.6h0.1h0.3V6H79v0.6h0.4v0.7c-0.3,0-0.5,0-0.5,0c-0.3,0-0.4-0.1-0.5-0.3c0-0.2-0.3-1,0.1-1.3
		c-0.3-0.3-0.2-0.9-0.1-1.2C78.4,4.1,78.6,4,79.1,4H79.4z"/>
	<path class="st1" d="M132.9,5.7V5.5V2.2V1.9c0-0.2-0.2-0.4-0.5-0.4h-1.5v0.7h1v1.3h-1v0.8h1v0.9c-0.1,0.2-0.1,0.2-0.3,0.3h-0.7v0.7
		h1.4C132.5,6.2,132.8,5.9,132.9,5.7L132.9,5.7z M130.9,9.3V7.4l0.1,0.2h2.2v0.7h-1.6l2,2.5h-0.9c-0.4,0-0.8-0.1-1.1-0.5L130.9,9.3z
		 M130.9,1.6h-2.2h-1h-0.1v6.8c0,1.2-0.2,2.2,1.3,2.3l0,0h1.5l0.2-0.7l-1.5-0.1c-0.2,0-0.3-0.1-0.3-0.3V6.3l2-0.1V5.5l-2.1-0.1V4.3
		l2.1,0.1V3.6l-2.1,0V2.3h2.1V1.6L130.9,1.6z M130.9,7.4v1.9l-2-2.4h1.6L130.9,7.4L130.9,7.4z M125.1,9.5V8.6h0.6l-0.1-3h-0.5V4.9
		h0.1l0.7-2.6h-0.8V1.6h0.8h0.4c0.2,0,0.3,0.1,0.4,0.3l-0.1,1.5l-0.7,1.5c0.8,0,0.7,1,0.7,2.7v1.1v0.2h-0.1
		c-0.1,0.3-0.3,0.5-0.7,0.5l0,0h0h-0.1H125.1z M125.1,1.6v0.7h-0.6v2.6h0.6v0.8h-0.6v3h0.6v0.8h-0.6l0,0.5c0,0.5-0.3,0.6-0.5,0.7
		h-0.6V1.6h0.1h1H125.1z"/>
	<path class="st1" d="M152.9,16.9v-0.7c0.2-0.1,0.3-0.2,0.4-0.3c0.2-0.3,0.3-0.6,0.3-0.9c0-0.4-0.1-0.7-0.3-0.9
		c-0.1-0.1-0.3-0.3-0.4-0.3V13c0.1,0,0.2,0.1,0.4,0.1c0.2,0,0.3,0.1,0.5,0.2c0.3,0.2,0.5,0.4,0.6,0.7c0.1,0.3,0.2,0.6,0.2,1
		c0,0.6-0.1,1.1-0.6,1.5C153.7,16.7,153.4,16.9,152.9,16.9L152.9,16.9z M155.5,16.9v-0.9h1v0.9H155.5z M152.9,13v0.7
		c-0.1,0-0.2,0-0.3,0h-0.5v2.6h0.5c0.1,0,0.1,0,0.3,0v0.7c-0.1,0-0.2,0-0.3,0h-1.4v-4h1.4C152.7,13,152.8,13,152.9,13L152.9,13z
		 M147.8,16.9v-0.7h0.1L147.8,16.9L147.8,16.9L147.8,16.9z M147.8,13.7h0.9v3.2h1v-3.2h0.9V13h-2.7V13.7z M147.8,13v0.7h0L147.8,13
		L147.8,13L147.8,13z M147.8,16.2h-1.6V13h-1v4h2.5V16.2L147.8,16.2z M137.2,17v-0.7c0.3,0,0.5-0.1,0.6-0.3c0.1-0.3,0.2-0.6,0.2-1
		c0-0.5-0.1-0.8-0.2-1c-0.1-0.3-0.3-0.4-0.6-0.4v-0.7c0.6,0,1,0.2,1.3,0.6c0.4,0.4,0.5,0.9,0.5,1.5c0,0.6-0.1,1.1-0.5,1.5
		C138.2,16.9,137.8,17,137.2,17L137.2,17z M139.8,16.9v-0.9h0.9v0.9H139.8L139.8,16.9z M141.9,16.9v-0.9h1v0.8l-0.6,1h-0.4l0.4-1
		H141.9z M137.2,12.9v0.7l0,0c-0.3,0-0.5,0.1-0.6,0.4c-0.2,0.2-0.3,0.5-0.3,1c0,0.4,0.1,0.7,0.3,1c0.1,0.2,0.3,0.3,0.6,0.3l0,0V17
		l0,0c-0.5,0-1-0.2-1.3-0.6c-0.4-0.4-0.5-0.8-0.5-1.5c0-0.6,0.2-1.1,0.5-1.5C136.3,13.1,136.7,12.9,137.2,12.9L137.2,12.9
		L137.2,12.9z M124.6,16v-0.7h0.4l-0.4-1.5V13h0.5l1.3,4h-1l-0.3-0.9H124.6L124.6,16z M127.1,16.9v-4h0.9v3.3h1.7v0.7H127.1
		L127.1,16.9z M133.9,14.4c0-0.3-0.1-0.5-0.2-0.6c-0.1-0.2-0.2-0.2-0.4-0.2c-0.3,0-0.5,0.1-0.6,0.4c-0.1,0.2-0.2,0.5-0.2,1
		c0,0.4,0.1,0.8,0.2,1c0.1,0.2,0.3,0.3,0.6,0.3c0.2,0,0.3-0.1,0.4-0.2c0.1-0.1,0.2-0.3,0.3-0.6l0.8,0.1c-0.1,0.5-0.2,0.8-0.5,1
		c-0.3,0.3-0.6,0.4-1,0.4c-0.6,0-1-0.2-1.3-0.5c-0.3-0.4-0.5-0.9-0.5-1.5c0-0.6,0.2-1.1,0.5-1.5c0.3-0.4,0.7-0.6,1.3-0.6
		c0.4,0,0.8,0.2,1,0.4c0.3,0.3,0.5,0.6,0.5,1.1L133.9,14.4z M124.6,13v0.9h-0.1l-0.4,1.5h0.5V16h-0.7l-0.2,0.9h-0.8l1.2-4H124.6
		L124.6,13z M100,16v-0.7h0.4l-0.4-1.5V13h0.6l1.2,4h-0.9l-0.3-0.9H100L100,16z M104.7,14.4c-0.1-0.3-0.1-0.5-0.3-0.6
		c-0.1-0.2-0.3-0.2-0.4-0.2c-0.3,0-0.4,0.1-0.6,0.4c-0.1,0.2-0.2,0.5-0.2,1c0,0.4,0.1,0.8,0.2,1c0.2,0.2,0.4,0.3,0.6,0.3
		c0.2,0,0.4-0.1,0.4-0.2c0.2-0.1,0.2-0.3,0.3-0.6l0.9,0.1c-0.1,0.5-0.3,0.8-0.5,1c-0.3,0.3-0.7,0.4-1.1,0.4c-0.6,0-1-0.2-1.3-0.5
		c-0.3-0.4-0.5-0.9-0.5-1.5c0-0.6,0.1-1.1,0.5-1.5c0.3-0.4,0.7-0.6,1.3-0.6c0.4,0,0.8,0.2,1.1,0.4c0.3,0.3,0.4,0.6,0.5,1.1
		L104.7,14.4L104.7,14.4z M106.5,16.9v-4h2.8v0.7h-1.9v0.8h1.6v0.7h-1.6v1h2v0.7H106.5L106.5,16.9z M110.1,13h0.9v2.6
		c0,0.3,0.1,0.5,0.1,0.6c0.1,0.1,0.3,0.2,0.6,0.2c0.2,0,0.3-0.1,0.5-0.2c0.1-0.2,0.2-0.4,0.2-0.6V13h0.7v2.6c0,0.5-0.1,0.8-0.4,1
		c-0.2,0.3-0.7,0.4-1.1,0.4c-0.3,0-0.6-0.1-0.8-0.2c-0.2-0.1-0.4-0.2-0.6-0.4c-0.1-0.1-0.1-0.2-0.1-0.4c0-0.1,0-0.3,0-0.5V13
		L110.1,13z M115.7,13.7v3.2h-0.9v-3.2h-0.9V13h2.8v0.7H115.7L115.7,13.7z M117.3,16.9v-4h0.9v4H117.3L117.3,16.9z M121.6,14.4
		c0-0.3-0.1-0.5-0.2-0.6c-0.2-0.2-0.3-0.2-0.5-0.2c-0.3,0-0.5,0.1-0.5,0.4c-0.2,0.2-0.2,0.5-0.2,1c0,0.4,0.1,0.8,0.2,1
		c0.1,0.2,0.3,0.3,0.5,0.3c0.2,0,0.4-0.1,0.5-0.2c0.1-0.1,0.2-0.3,0.2-0.6l0.9,0.1c-0.1,0.5-0.2,0.8-0.5,1c-0.3,0.3-0.6,0.4-1.1,0.4
		c-0.5,0-1-0.2-1.3-0.5c-0.3-0.4-0.5-0.9-0.5-1.5c0-0.6,0.2-1.1,0.5-1.5c0.3-0.4,0.8-0.6,1.3-0.6c0.5,0,0.8,0.2,1.1,0.4
		c0.3,0.3,0.5,0.6,0.5,1.1L121.6,14.4z M100,13v0.9l0,0l-0.5,1.5h0.5V16h-0.6L99,16.9h-0.8l1.3-4H100L100,13z M91.1,15.3v-0.7l0,0
		c0.2,0,0.4,0,0.5-0.1c0.1-0.1,0.2-0.2,0.2-0.4c0-0.2-0.1-0.3-0.2-0.4c-0.1,0-0.3-0.1-0.5-0.1l0,0V13h0.2c0.4,0,0.9,0.1,1.1,0.3
		c0.2,0.2,0.3,0.5,0.3,0.9c0,0.3,0,0.5-0.1,0.6c-0.1,0.2-0.3,0.3-0.5,0.4l0.7,1.8h-0.9L91.1,15.3L91.1,15.3L91.1,15.3z M93.5,16.9
		v-4h1.2l0.8,2.6l0.8-2.6h1.3v4h-0.9v-3.2l-1,3.2h-0.6l-1-3.2v3.2H93.5z M91.1,13v0.7h-0.7v1h0.7v0.7h-0.7v1.6h-0.9v-4H91.1L91.1,13
		z M86.9,16v-0.7h0.4l-0.4-1.5V13h0.6l1.3,4h-1L87.6,16H86.9z M86.9,13v0.9l0,0l-0.4,1.5h0.4V16h-0.6l-0.3,0.9h-0.8l1.2-4H86.9
		L86.9,13z M79.1,15.4v-0.7c0.2,0,0.3,0,0.4-0.2c0.2-0.1,0.2-0.2,0.2-0.4c0-0.2,0-0.3-0.2-0.4c-0.1-0.1-0.2-0.2-0.4-0.2V13h0
		c0.5,0,0.9,0.1,1.1,0.3c0.3,0.2,0.4,0.5,0.4,0.9c0,0.4-0.1,0.6-0.4,0.8c-0.3,0.3-0.6,0.4-1,0.4H79.1L79.1,15.4z M81.5,16.9v-4h0.9
		v1.5h1.3V13h0.9v4h-0.9v-1.7h-1.3v1.7H81.5z M79.1,13v0.7l0,0h-0.6v1.1H79c0,0,0.1,0,0.1,0v0.7h-0.6v1.5h-0.9v-4H79.1L79.1,13z
		 M73.4,17v-0.7c0-0.1,0-0.1,0-0.1c0.1,0,0.2-0.1,0.3-0.2l-0.3-0.4v-1.4c0.1,0,0.2-0.2,0.3-0.2c0.1-0.1,0.1-0.2,0.1-0.3
		c0-0.1,0-0.2-0.1-0.3c-0.1-0.1-0.1-0.1-0.3-0.1v-0.6c0.3,0,0.6,0.1,0.8,0.3c0.2,0.2,0.4,0.4,0.4,0.7c0,0.2-0.1,0.4-0.2,0.6
		c-0.1,0.2-0.3,0.3-0.6,0.4l0.5,0.8c0.1-0.2,0.2-0.3,0.3-0.4c0-0.2,0.1-0.3,0.2-0.5l0.8,0.1c-0.1,0.3-0.1,0.5-0.3,0.7
		c-0.1,0.3-0.2,0.5-0.4,0.6c0,0,0.1,0.1,0.2,0.1c0,0.1,0.1,0.1,0.2,0.1c0.1,0,0.1,0,0.2,0c0,0,0.1,0,0.1-0.1v0.7
		c-0.1,0-0.2,0-0.2,0.1c-0.1,0-0.2,0-0.2,0c-0.1,0-0.3-0.1-0.5-0.1c-0.2,0-0.3-0.2-0.4-0.3c-0.2,0.2-0.3,0.2-0.5,0.3
		C73.6,16.9,73.5,16.9,73.4,17z M73.4,12.9v0.6c0,0,0,0,0,0c-0.1,0-0.2,0-0.3,0.1c-0.1,0.1-0.1,0.2-0.1,0.3c0,0.1,0,0.2,0.1,0.2
		c0,0.1,0.1,0.2,0.3,0.3h0v1.4L73,15.1c-0.1,0.1-0.3,0.2-0.3,0.3c0,0.1-0.1,0.3-0.1,0.4c0,0.2,0,0.3,0.2,0.4
		c0.1,0.1,0.3,0.2,0.5,0.2c0.1,0,0.2,0,0.3,0V17c-0.1,0-0.2,0-0.3,0c-0.5,0-0.8-0.1-1.1-0.3c-0.2-0.3-0.4-0.5-0.4-0.9
		c0-0.3,0.1-0.5,0.2-0.7c0.2-0.2,0.4-0.3,0.8-0.4c-0.1-0.2-0.3-0.3-0.3-0.5c0-0.1,0-0.2,0-0.4c0-0.3,0.1-0.5,0.3-0.7
		C72.8,13,73,12.9,73.4,12.9C73.4,12.9,73.4,12.9,73.4,12.9L73.4,12.9z M64.8,16v-0.7h0.4l-0.4-1.5V13h0.6l1.3,4h-1L65.4,16H64.8
		L64.8,16z M67.3,16.9v-4h0.9v3.3h1.7v0.7H67.3z M64.8,13v0.9h-0.1l-0.4,1.5h0.5V16h-0.7l-0.2,0.9h-0.8l1.2-4H64.8L64.8,13z
		 M36.6,16v-0.7H37l-0.4-1.5V13h0.6l1.3,4h-1L37.2,16H36.6L36.6,16z M42.7,14.4c-0.1-0.3-0.1-0.5-0.3-0.6c-0.1-0.2-0.3-0.2-0.5-0.2
		c-0.2,0-0.5,0.1-0.6,0.4c-0.1,0.2-0.2,0.5-0.2,1c0,0.4,0.1,0.8,0.2,1c0.2,0.2,0.4,0.3,0.6,0.3c0.2,0,0.3-0.1,0.5-0.2
		c0.1-0.1,0.2-0.3,0.3-0.6l0.9,0.1c-0.1,0.5-0.2,0.8-0.5,1C42.8,16.9,42.4,17,42,17c-0.6,0-1-0.2-1.3-0.5c-0.3-0.4-0.4-0.9-0.4-1.5
		c0-0.6,0.1-1.1,0.4-1.5c0.3-0.4,0.8-0.6,1.3-0.6c0.5,0,0.8,0.2,1.1,0.4c0.3,0.3,0.5,0.6,0.5,1.1L42.7,14.4L42.7,14.4z M44.4,16.9
		v-4h0.9v1.5h1.3V13h0.9v4h-0.9v-1.7h-1.3v1.7H44.4L44.4,16.9z M48.7,16.9v-4h2.8v0.7h-1.9v0.8h1.6v0.7h-1.6v1h2v0.7H48.7L48.7,16.9
		z M52.4,16.9v-4h1.2l0.9,2.6l0.8-2.6h1.3v4h-0.9v-3.2l-1,3.2H54l-1-3.2v3.2H52.4L52.4,16.9z M57.6,16.9v-4h0.9v4H57.6L57.6,16.9z
		 M61.8,14.4c0-0.3-0.1-0.5-0.2-0.6c-0.1-0.2-0.3-0.2-0.5-0.2c-0.2,0-0.5,0.1-0.6,0.4c-0.1,0.2-0.2,0.5-0.2,1c0,0.4,0.1,0.8,0.2,1
		c0.1,0.2,0.3,0.3,0.6,0.3c0.2,0,0.4-0.1,0.4-0.2c0.2-0.1,0.2-0.3,0.3-0.6l0.9,0.1c-0.1,0.5-0.3,0.8-0.5,1c-0.3,0.3-0.6,0.4-1.1,0.4
		c-0.5,0-1-0.2-1.3-0.5c-0.3-0.4-0.5-0.9-0.5-1.5c0-0.6,0.2-1.1,0.5-1.5c0.3-0.4,0.8-0.6,1.3-0.6c0.4,0,0.8,0.2,1.1,0.4
		c0.3,0.3,0.5,0.6,0.5,1.1L61.8,14.4z M23.1,14.4C23,14.2,23,14,22.9,13.8c-0.1-0.2-0.3-0.2-0.5-0.2c-0.3,0-0.5,0.1-0.6,0.4
		c-0.1,0.2-0.2,0.5-0.2,1c0,0.4,0,0.8,0.2,1c0.1,0.2,0.3,0.3,0.6,0.3c0.2,0,0.4-0.1,0.5-0.2c0.1-0.1,0.2-0.3,0.3-0.6l0.9,0.1
		c-0.1,0.5-0.3,0.8-0.5,1c-0.3,0.3-0.7,0.4-1.1,0.4c-0.6,0-1-0.2-1.3-0.5c-0.3-0.4-0.5-0.9-0.5-1.5c0-0.6,0.2-1.1,0.5-1.5
		c0.3-0.4,0.8-0.6,1.3-0.6c0.5,0,0.8,0.2,1.1,0.4c0.3,0.3,0.4,0.6,0.5,1.1L23.1,14.4L23.1,14.4z M36.6,13v0.9l0,0l-0.5,1.5h0.5V16
		h-0.7l-0.2,0.9h-0.8l1.2-4H36.6L36.6,13z M24.8,16.9v-4h0.9v1.5H27V13h0.9v4H27v-1.7h-1.3v1.7H24.8L24.8,16.9z M29,16.9v-4h1v4H29
		L29,16.9z M31,16.9v-4h1l1.5,2.6l0-2.6h0.8v4h-0.8l-1.7-2.9v2.9H31z"/>
</g>
</svg>
